<svg stroke-miterlimit="10" style="fill-rule:nonzero;clip-rule:evenodd;stroke-linecap:round;stroke-linejoin:round" viewBox="0 0 500 600" xml:space="preserve" xmlns="http://www.w3.org/2000/svg" xmlns:vectornator="http://vectornator.io"><clipPath id="a"><path d="M0 0h500v600H0z"/></clipPath><g vectornator:layerName="Layer 1"><g vectornator:layerName="Group 1" clip-path="url(#a)"><path d="m77.31 121.324-1.627 271.177c-.023 3.764 3.006 6.967 6.765 7.155l11.023.55c3.759.187 6.828 3.391 6.855 7.154l1.035 144.529c.027 3.764 3.1 6.837 6.864 6.864l31.992.23a6.76 6.76 0 0 0 6.819-6.766l.023-44.158a6.577 6.577 0 0 1 6.816-6.611l1.695.051c3.762.113 6.819 3.255 6.828 7.019l.242 102.867" fill="none" stroke="#cadbf4" stroke-linejoin="round" stroke-width="2.5" vectornator:layerName="Curve 2"/><path d="M318.019 543.136a7.213 7.213 0 0 1-7.21-7.217l.039-72.52a7.213 7.213 0 0 1 7.217-7.21l9.401.005a7.213 7.213 0 0 1 7.21 7.217l-.039 72.52a7.213 7.213 0 0 1-7.217 7.21l-9.401-.005z" fill="none" stroke="#cadbf4" stroke-linejoin="round" stroke-width="2.5" vectornator:layerName="Rectangle 1"/><path d="m59.693 584.418 221.433-3.068a2.589 2.589 0 0 0 2.552-2.611l-1.618-174.818c-.013-1.423-.768-1.695-1.686-.608l-44.725 52.942-52.104 61.678c-.918 1.087-.509 1.962.914 1.955l74.426-.359a2.655 2.655 0 0 0 2.628-2.588l1.068-53.375c.029-1.422-.779-1.775-1.803-.789l-36.277 34.933c-1.025.987-.703 1.756.72 1.718l20.817-.552a2.684 2.684 0 0 0 2.594-2.644l.075-10.439" fill="none" stroke="#6998e1" stroke-linejoin="round" stroke-width="2.5" vectornator:layerName="Curve 6"/><path d="M117.357 202.01a7.088 7.088 0 1 1 .008-14.176 7.088 7.088 0 0 1-.008 14.176z" fill="#cadbf4" stroke="#cadbf4" stroke-linejoin="round" stroke-width="1.916" vectornator:layerName="Oval 1"/><path d="M260.485 500.58c-3.511-.001-6.356-2.811-6.354-6.274.002-3.463 2.85-6.27 6.361-6.268 3.511.002 6.356 2.811 6.354 6.275-.002 3.463-2.85 6.269-6.361 6.267z" fill="#6998e1" stroke="#6998e1" stroke-linejoin="round" stroke-width="1.916" vectornator:layerName="Oval 2"/><path d="M235.635 463.712a7.088 7.088 0 1 1 .008-14.176 7.088 7.088 0 0 1-.008 14.176z" fill="#6998e1" stroke="#6998e1" stroke-linejoin="round" stroke-width="1.916" vectornator:layerName="Oval 4"/><path d="M283.399 532.248a8.505 8.505 0 1 1 .008-17.01 8.505 8.505 0 0 1-.008 17.01z" fill="#6998e1" stroke="#6998e1" stroke-linejoin="round" stroke-width="1.916" vectornator:layerName="Oval 3"/><path d="m282.129 550.405-70.582 1.655.143 23.623h0l71.687-1.861-.263-17.413h0l-61.108 1.396.033 12.058h0l51.246-1.399-.113-6.095h0l-40.706 1.18" fill="none" stroke="#6998e1" stroke-linejoin="round" stroke-width="2.5" vectornator:layerName="Curve 11"/><path d="M79.906 133.558c-7.828-.004-14.171-6.354-14.167-14.183.004-7.828 6.354-14.171 14.182-14.167 7.83.004 14.172 6.354 14.168 14.182-.004 7.829-6.354 14.172-14.183 14.168z" fill="#cadbf4" stroke="#cadbf4" stroke-linejoin="round" stroke-width="2.5" vectornator:layerName="Oval 5"/><path d="M378.025-446.63c-3.085-.001-5.584-2.095-5.583-4.676.002-2.581 2.503-4.672 5.588-4.67 3.085.002 5.584 2.095 5.583 4.676-.001 2.581-2.503 4.672-5.588 4.67z" fill="#adc0df" stroke="#adc0df" stroke-linejoin="round" stroke-width="2.5" vectornator:layerName="Oval 7"/><path d="m140.976 611.373.08-194.764c.017-7.752 6.315-14.033 14.067-14.029l15.406.008c6.664.004 12.069-5.396 12.073-12.06l.1-188.484" fill="none" stroke="#cadbf4" stroke-linejoin="round" stroke-width="2.5" vectornator:layerName="Curve 14"/><path d="M184.818 215.024c-7.829-.004-14.172-6.354-14.168-14.183.004-7.828 6.354-14.171 14.183-14.167 7.828.004 14.171 6.354 14.167 14.182-.004 7.829-6.354 14.172-14.182 14.168z" fill="#cadbf4" stroke="#c7d9f3" stroke-linejoin="round" stroke-width="2.5" vectornator:layerName="Oval 8"/><path d="m.097 319.998 151.136.124a4.572 4.572 0 0 0 4.685-4.562l.273-50.81a4.59 4.59 0 0 1 4.686-4.577l33.397.61" fill="none" stroke="#adc0df" stroke-linejoin="round" stroke-width="2.5" vectornator:layerName="Curve 1"/><path d="M203.376 274.708c-5.031-.003-9.107-4.629-9.104-10.334.003-5.704 4.084-10.326 9.115-10.324 5.031.003 9.107 4.63 9.104 10.334-.003 5.704-4.084 10.326-9.115 10.324z" fill="#adc0df" stroke="#adc0df" stroke-linejoin="round" stroke-width="2.562" vectornator:layerName="Oval 1"/><path d="m71.274 616.652-1.712-176.571 6.32.003h0l-.264 75.043h0l59.739.032.189 10.6h0l19.578.503-.184 13.45h0l141.249.327h0l.37 71.417" fill="none" stroke="#91b1e2" stroke-linejoin="round" stroke-width="2.5" vectornator:layerName="Curve 2"/><path d="M188.321 546.477c-3.205-.002-5.801-2.497-5.799-5.574.001-3.076 2.6-5.568 5.805-5.567 3.204.002 5.8 2.497 5.798 5.574-.001 3.076-2.6 5.568-5.804 5.567z" fill="#91b1e2" stroke="#91b1e2" stroke-linejoin="round" stroke-width="2.562" vectornator:layerName="Oval 2"/><path d="M152.503 507.914c-3.204-.001-5.8-2.497-5.799-5.573.002-3.076 2.601-5.569 5.805-5.567 3.204.002 5.801 2.497 5.799 5.573-.002 3.077-2.601 5.569-5.805 5.567z" fill="#cadbf4" stroke="#cadbf4" stroke-linejoin="round" stroke-width="2.562" vectornator:layerName="Oval 3"/><path d="m135.536 179.002-.979 117.559a2.758 2.758 0 0 1-2.772 2.733l-32.979-.178a2.765 2.765 0 0 0-2.776 2.734l-.539 53.624a2.81 2.81 0 0 1-2.776 2.772l-92.638-.081" fill="none" stroke="#6998e1" stroke-linejoin="round" stroke-width="2.5" vectornator:layerName="Curve 2"/><path d="m116.854 194.922-1.196 31.407a.667.667 0 0 0 .65.693l5.773.153a.647.647 0 0 1 .63.658l-1.307 70.462" fill="none" stroke="#cadbf4" stroke-linejoin="round" stroke-width="2.5" vectornator:layerName="Curve 3"/><path d="m164.912 329.035-53.177-.346a4.296 4.296 0 0 0-4.312 4.204l-.44 23.24a2.248 2.248 0 0 1-2.256 2.2l-12.551-.08" fill="none" stroke="#6998e1" stroke-width="2.378" vectornator:layerName="Curve 4"/><path d="M170.579 334.824a5.67 5.67 0 1 1 .006-11.339 5.67 5.67 0 1 1-.006 11.339z" fill="#6998e1" stroke="#6998e1" stroke-width="2.378" vectornator:layerName="Oval 1"/><path d="m60.682 394.648-.913 47.226 11.615-32.535-10.702-14.691z" fill="none" stroke="#6998e1" stroke-linejoin="round" stroke-width="2.5" vectornator:layerName="Curve 7"/><path d="m59.769 441.874.675 117.977.14 24.313" fill="none" stroke="#6998e1" stroke-linejoin="round" stroke-width="2.5" vectornator:layerName="Curve 8"/><path d="m115.302 441.311.294 97.309a1.356 1.356 0 0 1-1.366 1.362l-17.111-.109s-1.372-.622-1.374-1.379l-.088-37.194a1.397 1.397 0 0 0-1.374-1.389L0 502.263" fill="none" stroke="#6998e1" stroke-linejoin="round" stroke-width="2.5" vectornator:layerName="Curve 9"/><path d="M116.44 454.392c-6.205-.419-10.883-5.992-10.447-12.449.436-6.456 5.82-11.351 12.025-10.932 6.206.419 10.884 5.993 10.448 12.449-.436 6.457-5.82 11.351-12.026 10.932z" fill="#6998e1" stroke="#6998e1" stroke-linejoin="round" stroke-width="2.562" vectornator:layerName="Oval 3"/><path d="m274.868 581.471 70.744-.939c5.086-.067 9.264-4.297 9.331-9.448l.017-1.233c.067-5.151 4.245-9.401 9.331-9.493l102.469-.99" fill="none" stroke="#6998e1" stroke-linejoin="round" stroke-width="2.5" vectornator:layerName="Curve 15"/><path d="M332.453 575.747a7.213 7.213 0 0 1-7.209-7.217l.038-72.52a7.214 7.214 0 0 1 7.218-7.21l9.401.005a7.214 7.214 0 0 1 7.21 7.218l-.039 72.52a7.213 7.213 0 0 1-7.217 7.209l-9.402-.005z" fill="none" stroke="#6998e1" stroke-linejoin="round" stroke-width="2.5" vectornator:layerName="Rectangle 1"/><path d="M339.674 508.014c-5.208-.003-9.428-4.305-9.425-9.61.003-5.305 4.227-9.603 9.435-9.6 5.208.003 9.428 4.305 9.425 9.61-.003 5.305-4.227 9.603-9.435 9.6z" fill="none" stroke="#6998e1" stroke-linejoin="round" stroke-width="2.903" vectornator:layerName="Oval 4"/><path d="M100.635 589.798a5.67 5.67 0 1 1 .007-11.341 5.67 5.67 0 0 1-.007 11.341z" fill="#6998e1" stroke="#6998e1" stroke-linejoin="round" stroke-width="2.903" vectornator:layerName="Oval 5"/><path d="M124.894 589.811c-3.26-.002-5.901-2.583-5.899-5.765.002-3.183 2.645-5.761 5.905-5.759 3.259.001 5.9 2.583 5.898 5.765-.001 3.182-2.645 5.761-5.904 5.759z" fill="#6998e1" stroke="#6998e1" stroke-linejoin="round" stroke-width="1.899" vectornator:layerName="Oval 6"/><path d="M140.988 589.819a5.67 5.67 0 1 1 .006-11.34 5.67 5.67 0 0 1-.006 11.34z" fill="#6998e1" stroke="#6998e1" stroke-linejoin="round" stroke-width="1.866" vectornator:layerName="Oval 8"/><path d="M149.909 385.194a8.814 8.814 0 0 1-8.808-8.817v-.103a8.813 8.813 0 0 1 8.817-8.808h.591a8.813 8.813 0 0 1 8.808 8.817v.103a8.813 8.813 0 0 1-8.817 8.808h-.591z" fill="#6998e1" stroke="#6998e1" stroke-linejoin="round" stroke-width="1.866" vectornator:layerName="Rectangle 3"/><path d="m.067 376.25 166.09.129a3.114 3.114 0 0 0 3.154-3.128l-.021-11.896a3.078 3.078 0 0 1 3.154-3.097l207.661 4.137a3.132 3.132 0 0 1 3.073 3.222l-.59 21.361a3.209 3.209 0 0 1-3.246 3.113l-184.468-2.703a3.013 3.013 0 0 1-2.989-3.201l.735-13.543c.095-1.743 1.586-3.13 3.331-3.098l169.224 3.041a3.068 3.068 0 0 1 3.025 3.214l-.301 7.026a3.229 3.229 0 0 1-3.294 3.079l-157.518-3.923a3.139 3.139 0 0 1-3.063-3.237l.01-.34a3.277 3.277 0 0 1 3.256-3.157l22.879.013" fill="none" stroke="#6998e1" stroke-linejoin="round" stroke-width="2.5" vectornator:layerName="Curve 18"/><path d="M231.422 375.825a2.836 2.836 0 0 1 .003-5.67 2.834 2.834 0 1 1-.003 5.67z" fill="#6998e1" stroke="#6998e1" stroke-linejoin="round" stroke-width="1.866" vectornator:layerName="Oval 9"/><path d="M279.388 364.51c-2.433-.001-4.404-2.066-4.402-4.612.001-2.547 1.974-4.61 4.407-4.609 2.432.002 4.403 2.067 4.402 4.613-.002 2.547-1.975 4.61-4.407 4.608z" fill="#6998e1" stroke="#6998e1" stroke-linejoin="round" stroke-width="1.866" vectornator:layerName="Oval 10"/><path d="M372.008 365.977c-2.435-.001-4.408-2.066-4.406-4.613.001-2.546 1.976-4.609 4.411-4.608 2.434.002 4.407 2.067 4.406 4.613-.002 2.546-1.976 4.609-4.411 4.608z" fill="#6998e1" stroke="#6998e1" stroke-linejoin="round" stroke-width="1.866" vectornator:layerName="Oval 11"/><path d="M474.619 570.227c-6.103-.003-11.048-5.288-11.044-11.805.003-6.516 4.953-11.796 11.056-11.793 6.103.003 11.047 5.288 11.044 11.805-.003 6.516-4.954 11.797-11.056 11.793z" fill="#6998e1" stroke="#6998e1" stroke-linejoin="round" stroke-width="2.903" vectornator:layerName="Oval 12"/><path d="m115.21 443.723 34.617-.243c.485-.003.833-.889.777-1.978l-.378-7.423c-.055-1.089.293-1.966.779-1.959l57.778.847c.486.007.913.895.954 1.984l.505 13.335c.041 1.089-.318 1.97-.804 1.969l-21.626-.061-29.668-.084c-.486-.001-.902-.884-.93-1.973l-.22-8.456c-.029-1.089.342-1.967.827-1.962l47.074.484c.485.005.906.892.94 1.98l.137 4.387c.034 1.089-.333 1.961-.818 1.948l-43.852-1.131c-.486-.012-.912-.905-.952-1.994l-.007-.212c-.04-1.089.32-1.983.805-1.997L167.5 441" fill="none" stroke="#6998e1" stroke-linejoin="round" stroke-width="1.866" vectornator:layerName="Curve 19"/></g></g></svg>