<svg stroke-miterlimit="10" style="fill-rule:nonzero;clip-rule:evenodd;stroke-linecap:round;stroke-linejoin:round" viewBox="0 0 500 600" xml:space="preserve" xmlns="http://www.w3.org/2000/svg" xmlns:vectornator="http://vectornator.io"><clipPath id="a"><path d="M0 0h500v600H0z"/></clipPath><g vectornator:layerName="Layer 1"><g vectornator:layerName="Group 1" clip-path="url(#a)"><path d="m421.943 121.6.3 270.564c.004 3.755-3.096 6.936-6.924 7.105l-11.225.494c-3.828.168-6.969 3.349-7.015 7.104l-1.777 144.193c-.047 3.755-3.191 6.805-7.023 6.813l-32.573.071c-3.832.008-6.925-3.029-6.908-6.784l.197-44.058c.017-3.755-3.075-6.723-6.905-6.63l-1.727.043c-3.83.094-6.959 3.214-6.986 6.969l-.762 102.63" fill="none" stroke="#cadbf4" stroke-linejoin="round" stroke-width="2.5" vectornator:layerName="Curve 2"/><path d="M174.765 541.247c4.056.018 7.358-3.19 7.376-7.165l.324-72.354c.018-3.975-3.256-7.211-7.312-7.229l-9.572-.042c-4.056-.018-7.358 3.19-7.376 7.165l-.324 72.354c-.018 3.975 3.256 7.211 7.312 7.229l9.572.042z" fill="none" stroke="#cadbf4" stroke-linejoin="round" stroke-width="2.5" vectornator:layerName="Rectangle 1"/><path d="m437.562 583.722-225.428-4.164c-1.449-.027-2.606-1.199-2.585-2.619l2.522-174.409c.021-1.419.791-1.687 1.72-.598l45.27 53.044 52.739 61.795c.929 1.089.508 1.961-.94 1.947l-75.773-.729c-1.448-.014-2.64-1.176-2.662-2.595l-.821-53.259c-.022-1.419.802-1.767 1.841-.777l36.758 35.033c1.038.989.707 1.755-.741 1.711l-21.192-.655c-1.448-.045-2.624-1.232-2.627-2.651l-.024-10.416" fill="none" stroke="#6998e1" stroke-linejoin="round" stroke-width="2.5" vectornator:layerName="Curve 6"/><path d="M380.767 201.901c3.986.018 7.23-3.134 7.248-7.039.017-3.906-3.199-7.086-7.184-7.103-3.985-.018-7.23 3.134-7.248 7.039-.017 3.906 3.199 7.086 7.184 7.103z" fill="#cadbf4" stroke="#cadbf4" stroke-linejoin="round" stroke-width="1.916" vectornator:layerName="Oval 1"/><path d="M233.553 499.075c3.575.016 6.485-2.772 6.5-6.228.016-3.456-2.869-6.269-6.444-6.285-3.575-.016-6.485 2.773-6.5 6.228-.016 3.456 2.869 6.27 6.444 6.285z" fill="#6998e1" stroke="#6998e1" stroke-linejoin="round" stroke-width="1.916" vectornator:layerName="Oval 2"/><path d="M259.038 462.415c3.985.018 7.23-3.134 7.247-7.039.018-3.906-3.199-7.086-7.184-7.103-3.985-.018-7.23 3.134-7.247 7.04-.018 3.905 3.199 7.085 7.184 7.102z" fill="#6998e1" stroke="#6998e1" stroke-linejoin="round" stroke-width="1.916" vectornator:layerName="Oval 4"/><path d="M210.066 530.556c4.782.021 8.676-3.761 8.697-8.448.021-4.686-3.839-8.502-8.621-8.523-4.783-.021-8.676 3.761-8.697 8.448-.021 4.686 3.839 8.502 8.621 8.523z" fill="#6998e1" stroke="#6998e1" stroke-linejoin="round" stroke-width="1.916" vectornator:layerName="Oval 3"/><path d="m211.268 548.678 71.852 2.003-.265 23.568h0l-72.975-2.214.355-17.371h0l62.207 1.696-.094 12.031h0l-52.167-1.651.146-6.081h0l41.438 1.381" fill="none" stroke="#6998e1" stroke-linejoin="round" stroke-width="2.5" vectornator:layerName="Curve 11"/><path d="M419.239 133.793c7.971.035 14.46-6.269 14.495-14.08.035-7.81-6.398-14.17-14.368-14.205-7.971-.035-14.46 6.268-14.495 14.079-.035 7.811 6.398 14.171 14.368 14.206z" fill="#cadbf4" stroke="#cadbf4" stroke-linejoin="round" stroke-width="2.5" vectornator:layerName="Oval 5"/><path d="M118.627-446.552c3.141.014 5.696-2.062 5.707-4.637.012-2.575-2.525-4.674-5.665-4.688-3.141-.013-5.696 2.063-5.708 4.638-.011 2.575 2.525 4.674 5.666 4.687z" fill="#adc0df" stroke="#adc0df" stroke-linejoin="round" stroke-width="2.5" vectornator:layerName="Oval 7"/><path d="m354.671 610.21.894-194.319c.021-7.734-6.359-14.032-14.252-14.067l-15.684-.068c-6.785-.03-12.261-5.444-12.231-12.093l.841-188.053" fill="none" stroke="#cadbf4" stroke-linejoin="round" stroke-width="2.5" vectornator:layerName="Curve 14"/><path d="M312.02 214.55c7.971.034 14.46-6.269 14.495-14.08.035-7.811-6.398-14.171-14.368-14.206-7.971-.034-14.46 6.269-14.495 14.08-.035 7.811 6.398 14.171 14.368 14.206z" fill="#cadbf4" stroke="#c7d9f3" stroke-linejoin="round" stroke-width="2.5" vectornator:layerName="Oval 8"/><path d="m499.56 320.204-153.873-.63c-2.621.042-4.746-2.006-4.747-4.574l-.024-50.696c-.001-2.568-2.127-4.623-4.748-4.589l-34.005.442" fill="none" stroke="#adc0df" stroke-linejoin="round" stroke-width="2.5" vectornator:layerName="Curve 1"/><path d="M292.827 274.004c5.122.023 9.295-4.573 9.32-10.264.026-5.691-4.106-10.323-9.228-10.346-5.122-.022-9.295 4.573-9.32 10.265-.026 5.691 4.106 10.323 9.228 10.345z" fill="#adc0df" stroke="#adc0df" stroke-linejoin="round" stroke-width="2.562" vectornator:layerName="Oval 1"/><path d="m425.61 615.824 2.627-176.159-6.435-.028h0l-.107 74.873h0l-60.821-.266-.246 10.575h0l-19.935.405.12 13.42h0l-143.808-.378h0l-.734 71.252" fill="none" stroke="#91b1e2" stroke-linejoin="round" stroke-width="2.5" vectornator:layerName="Curve 2"/><path d="M306.795 545.226c3.262.014 5.918-2.462 5.931-5.532.014-3.069-2.619-5.569-5.882-5.583-3.262-.014-5.918 2.463-5.932 5.532-.013 3.069 2.62 5.569 5.883 5.583z" fill="#91b1e2" stroke="#91b1e2" stroke-linejoin="round" stroke-width="2.562" vectornator:layerName="Oval 2"/><path d="M343.454 506.931c3.262.014 5.918-2.463 5.931-5.532.014-3.069-2.619-5.569-5.882-5.583-3.262-.015-5.918 2.462-5.931 5.531-.014 3.07 2.619 5.569 5.882 5.584z" fill="#cadbf4" stroke="#cadbf4" stroke-linejoin="round" stroke-width="2.562" vectornator:layerName="Oval 3"/><path d="m362.375 178.856.408 117.294c.006 1.515 1.263 2.742 2.808 2.741l33.577-.013c1.546-.001 2.805 1.226 2.813 2.741l.28 53.504c.008 1.515 1.267 2.759 2.813 2.78l94.316.381" fill="none" stroke="#6998e1" stroke-linejoin="round" stroke-width="2.5" vectornator:layerName="Curve 2"/><path d="m381.315 194.832 1.06 31.342a.67.67 0 0 1-.665.688l-5.878.123a.654.654 0 0 0-.645.654l.979 70.307" fill="none" stroke="#cadbf4" stroke-linejoin="round" stroke-width="2.5" vectornator:layerName="Curve 3"/><path d="m331.715 328.399 54.142-.08c2.38-.004 4.336 1.884 4.369 4.216l.331 23.189c.018 1.22 1.042 2.208 2.287 2.206l12.779-.017" fill="none" stroke="#6998e1" stroke-width="2.378" vectornator:layerName="Curve 4"/><path d="M325.917 334.147c3.188.014 5.784-2.508 5.798-5.632.014-3.124-2.559-5.668-5.747-5.682-3.189-.014-5.784 2.507-5.798 5.632-.014 3.124 2.559 5.668 5.747 5.682z" fill="#6998e1" stroke="#6998e1" stroke-width="2.378" vectornator:layerName="Oval 1"/><path d="m437.504 394.381.694 47.122-11.663-32.518 10.969-14.604z" fill="none" stroke="#6998e1" stroke-linejoin="round" stroke-width="2.5" vectornator:layerName="Curve 7"/><path d="m438.198 441.503-1.278 117.704-.264 24.256" fill="none" stroke="#6998e1" stroke-linejoin="round" stroke-width="2.5" vectornator:layerName="Curve 8"/><path d="m381.662 440.665-.787 97.085c-.006.755.614 1.366 1.385 1.365l17.421-.023s1.4-.614 1.406-1.369l.275-37.109c.006-.755.635-1.372 1.406-1.378l95.979 2.816" fill="none" stroke="#6998e1" stroke-linejoin="round" stroke-width="2.5" vectornator:layerName="Curve 9"/><path d="M380.438 453.711c6.32-.387 11.11-5.925 10.698-12.369-.411-6.444-5.868-11.354-12.188-10.967-6.32.387-11.11 5.925-10.699 12.369.411 6.444 5.868 11.354 12.189 10.967z" fill="#6998e1" stroke="#6998e1" stroke-linejoin="round" stroke-width="2.562" vectornator:layerName="Oval 3"/><path d="m218.505 579.709-72.02-1.289c-5.178-.092-9.411-4.334-9.454-9.473l-.01-1.23c-.043-5.14-4.275-9.401-9.453-9.517l-104.32-1.499" fill="none" stroke="#6998e1" stroke-linejoin="round" stroke-width="2.5" vectornator:layerName="Curve 15"/><path d="M159.905 573.712c4.056.017 7.359-3.19 7.377-7.165l.323-72.354c.018-3.975-3.255-7.212-7.311-7.229l-9.572-.042c-4.056-.018-7.359 3.19-7.376 7.165l-.324 72.354c-.018 3.975 3.256 7.211 7.312 7.229l9.571.042z" fill="none" stroke="#6998e1" stroke-linejoin="round" stroke-width="2.5" vectornator:layerName="Rectangle 1"/><path d="M152.893 506.097c5.303.023 9.62-4.248 9.644-9.541.024-5.292-4.256-9.601-9.558-9.624-5.303-.024-9.62 4.248-9.644 9.54-.024 5.293 4.256 9.602 9.558 9.625z" fill="none" stroke="#6998e1" stroke-linejoin="round" stroke-width="2.903" vectornator:layerName="Oval 4"/><path d="M395.851 588.885c3.188.014 5.784-2.507 5.798-5.632.014-3.124-2.559-5.668-5.747-5.682-3.188-.014-5.784 2.508-5.798 5.632-.014 3.124 2.559 5.668 5.747 5.682z" fill="#6998e1" stroke="#6998e1" stroke-linejoin="round" stroke-width="2.903" vectornator:layerName="Oval 5"/><path d="M371.153 588.777c3.319.015 6.02-2.547 6.034-5.722.015-3.176-2.664-5.761-5.982-5.776-3.319-.014-6.02 2.548-6.035 5.723-.014 3.175 2.665 5.761 5.983 5.775z" fill="#6998e1" stroke="#6998e1" stroke-linejoin="round" stroke-width="1.899" vectornator:layerName="Oval 6"/><path d="M354.767 588.706c3.189.013 5.784-2.508 5.798-5.632.014-3.125-2.559-5.669-5.747-5.683-3.188-.013-5.784 2.508-5.798 5.632-.014 3.125 2.559 5.669 5.747 5.683z" fill="#6998e1" stroke="#6998e1" stroke-linejoin="round" stroke-width="1.866" vectornator:layerName="Oval 8"/><path d="M346.709 384.504c4.955.021 8.99-3.897 9.012-8.753v-.103c.022-4.856-3.977-8.81-8.932-8.831l-.602-.003c-4.955-.022-8.99 3.897-9.011 8.753l-.001.103c-.021 4.855 3.978 8.809 8.933 8.831l.601.003z" fill="#6998e1" stroke="#6998e1" stroke-linejoin="round" stroke-width="1.866" vectornator:layerName="Rectangle 3"/><path d="m499.309 376.327-169.098-.699c-1.777.009-3.208-1.395-3.196-3.136l.081-11.869c.012-1.741-1.418-3.132-3.195-3.106l-211.442 3.094c-1.777.026-3.185 1.458-3.144 3.199l.492 21.315c.041 1.741 1.514 3.139 3.291 3.122l187.821-1.777c1.777-.017 3.146-1.441 3.059-3.18l-.68-13.515c-.088-1.739-1.599-3.131-3.376-3.108l-172.304 2.191c-1.776.023-3.162 1.452-3.095 3.192l.271 7.011c.067 1.74 1.561 3.123 3.338 3.088l160.39-3.129c1.777-.034 3.18-1.474 3.135-3.215l-.009-.338c-.045-1.741-1.522-3.158-3.299-3.166l-23.294-.102" fill="none" stroke="#6998e1" stroke-linejoin="round" stroke-width="2.5" vectornator:layerName="Curve 18"/><path d="M263.767 374.75c1.594.007 2.892-1.253 2.899-2.815.007-1.563-1.28-2.835-2.874-2.842-1.594-.007-2.892 1.254-2.899 2.816-.007 1.562 1.28 2.834 2.874 2.841z" fill="#6998e1" stroke="#6998e1" stroke-linejoin="round" stroke-width="1.866" vectornator:layerName="Oval 9"/><path d="M214.989 363.223c2.477.011 4.494-2.04 4.505-4.58.012-2.541-1.987-4.609-4.463-4.62-2.477-.011-4.494 2.04-4.505 4.58-.012 2.541 1.987 4.609 4.463 4.62z" fill="#6998e1" stroke="#6998e1" stroke-linejoin="round" stroke-width="1.866" vectornator:layerName="Oval 10"/><path d="M120.685 364.225c2.479.011 4.497-2.04 4.509-4.581.011-2.54-1.989-4.608-4.468-4.619-2.479-.011-4.497 2.04-4.509 4.58-.011 2.541 1.989 4.609 4.468 4.62z" fill="#6998e1" stroke="#6998e1" stroke-linejoin="round" stroke-width="1.866" vectornator:layerName="Oval 11"/><path d="M15.193 567.496c6.214.027 11.274-5.221 11.303-11.723.03-6.502-4.984-11.794-11.197-11.821-6.214-.028-11.274 5.221-11.303 11.723-.03 6.501 4.984 11.794 11.197 11.821z" fill="#6998e1" stroke="#6998e1" stroke-linejoin="round" stroke-width="2.903" vectornator:layerName="Oval 12"/><path d="m381.743 443.072-35.242-.415c-.494-.005-.844-.891-.782-1.977l.423-7.404c.062-1.087-.289-1.963-.783-1.959l-58.829.557c-.494.005-.934.889-.981 1.975l-.581 13.302c-.048 1.086.314 1.968.808 1.969l22.019.046 30.205.065c.494.001.923-.878.957-1.964l.266-8.436c.035-1.086-.338-1.964-.832-1.961l-47.929.248c-.494.002-.927.885-.967 1.971l-.161 4.376c-.04 1.086.329 1.958.823 1.948l44.651-.91c.495-.01.933-.899.979-1.985l.009-.212c.046-1.086-.316-1.98-.809-1.996l-6.466-.215" fill="none" stroke="#6998e1" stroke-linejoin="round" stroke-width="1.866" vectornator:layerName="Curve 19"/></g></g></svg>