<svg stroke-miterlimit="10" style="fill-rule:nonzero;clip-rule:evenodd;stroke-linecap:round;stroke-linejoin:round" viewBox="0 0 841.995 595.35" xml:space="preserve" xmlns="http://www.w3.org/2000/svg" xmlns:vectornator="http://vectornator.io"><clipPath id="a"><path d="M0 0h841.995v595.35H0z"/></clipPath><g vectornator:layerName="Layer 2"><g vectornator:layerName="Group 1" clip-path="url(#a)"><path d="M478.384 65.464 207.206 63.98c-3.764-.02-6.965 3.01-7.151 6.77l-.544 11.023c-.186 3.759-3.387 6.83-7.151 6.859L47.832 89.743c-3.764.03-6.835 3.104-6.86 6.868l-.214 31.993a6.76 6.76 0 0 0 6.77 6.814h44.158a6.577 6.577 0 0 1 6.615 6.812l-.05 1.695c-.111 3.763-3.252 6.821-7.016 6.832l-102.867.297" fill="none" stroke="#cadbf4" stroke-linejoin="round" stroke-width="2.5" vectornator:layerName="Curve 2"/><path d="M56.7 306.396a7.213 7.213 0 0 1 7.213-7.213h72.521a7.213 7.213 0 0 1 7.213 7.213v9.402a7.214 7.214 0 0 1-7.213 7.213h-72.52a7.214 7.214 0 0 1-7.214-7.213v-9.402z" fill="none" stroke="#cadbf4" stroke-linejoin="round" stroke-width="2.5" vectornator:layerName="Rectangle 1"/><path d="m15.28 48.092 3.186 221.432a2.59 2.59 0 0 0 2.613 2.551l174.817-1.711c1.422-.014 1.694-.769.607-1.687l-52.966-44.696-61.705-52.072c-1.087-.917-1.963-.508-1.955.915l.398 74.426a2.654 2.654 0 0 0 2.59 2.626l53.375 1.041c1.423.028 1.776-.78.788-1.805l-34.952-36.257c-.987-1.025-1.756-.702-1.718.72l.564 20.817a2.683 2.683 0 0 0 2.646 2.593l10.439.069" fill="none" stroke="#6998e1" stroke-linejoin="round" stroke-width="2.5" vectornator:layerName="Curve 6"/><path d="M397.72 105.554a7.087 7.087 0 1 1 14.175 0 7.087 7.087 0 0 1-14.175 0z" fill="#cadbf4" stroke="#cadbf4" stroke-linejoin="round" stroke-width="1.916" vectornator:layerName="Oval 1"/><path d="M99.225 248.84c0-3.511 2.808-6.357 6.271-6.357 3.464 0 6.271 2.846 6.271 6.357s-2.807 6.357-6.271 6.357c-3.463 0-6.271-2.846-6.271-6.357z" fill="#6998e1" stroke="#6998e1" stroke-linejoin="round" stroke-width="1.916" vectornator:layerName="Oval 2"/><path d="M136.08 223.97a7.087 7.087 0 1 1 14.175 0 7.087 7.087 0 0 1-14.175 0z" fill="#6998e1" stroke="#6998e1" stroke-linejoin="round" stroke-width="1.916" vectornator:layerName="Oval 4"/><path d="M67.57 271.771a8.505 8.505 0 1 1 17.01 0 8.505 8.505 0 0 1-17.01 0z" fill="#6998e1" stroke="#6998e1" stroke-linejoin="round" stroke-width="1.916" vectornator:layerName="Oval 3"/><path d="m49.412 270.51-1.693-70.581-23.623.156h0l1.9 71.686 17.412-.272h0l-1.428-61.107-12.058.039h0l1.426 51.245 6.095-.116h0l-1.201-40.706" fill="none" stroke="#6998e1" stroke-linejoin="round" stroke-width="2.5" vectornator:layerName="Curve 11"/><path d="M466.151 68.066c0-7.828 6.347-14.175 14.175-14.175 7.829 0 14.175 6.347 14.175 14.175 0 7.829-6.346 14.175-14.175 14.175-7.828 0-14.175-6.346-14.175-14.175z" fill="#cadbf4" stroke="#cadbf4" stroke-linejoin="round" stroke-width="2.5" vectornator:layerName="Oval 5"/><path d="M1046.5 365.877c0-3.085 2.09-5.586 4.67-5.586s4.67 2.501 4.67 5.586c0 3.084-2.09 5.585-4.67 5.585s-4.67-2.501-4.67-5.585z" fill="#adc0df" stroke="#adc0df" stroke-linejoin="round" stroke-width="2.5" vectornator:layerName="Oval 7"/><path d="m-11.632 129.39 194.765-.023c7.752.013 14.036 6.307 14.036 14.059v15.406c0 6.664 5.403 12.066 12.067 12.066H397.72" fill="none" stroke="#cadbf4" stroke-linejoin="round" stroke-width="2.5" vectornator:layerName="Curve 14"/><path d="M384.741 173.021c0-7.829 6.347-14.175 14.175-14.175 7.829 0 14.175 6.346 14.175 14.175 0 7.829-6.346 14.175-14.175 14.175-7.828 0-14.175-6.346-14.175-14.175z" fill="#cadbf4" stroke="#c7d9f3" stroke-linejoin="round" stroke-width="2.5" vectornator:layerName="Oval 8"/><path d="m279.669-11.644-.043 151.136a4.572 4.572 0 0 0 4.564 4.683l50.81.246a4.589 4.589 0 0 1 4.579 4.683l-.592 33.398" fill="none" stroke="#adc0df" stroke-linejoin="round" stroke-width="2.5" vectornator:layerName="Curve 1"/><path d="M325.067 191.611c0-5.031 4.625-9.109 10.329-9.109 5.704 0 10.329 4.078 10.329 9.109s-4.625 9.11-10.329 9.11c-5.704 0-10.329-4.079-10.329-9.11z" fill="#adc0df" stroke="#adc0df" stroke-linejoin="round" stroke-width="2.562" vectornator:layerName="Oval 1"/><path d="m-16.947 59.69 176.57-1.805v6.32h0L84.58 63.98h0v59.74l-10.6.195h0l-.493 19.578-13.45-.177h0l-.251 141.249h0l-71.417.408" fill="none" stroke="#91b1e2" stroke-linejoin="round" stroke-width="2.5" vectornator:layerName="Curve 2"/><path d="M53.29 176.7c0-3.204 2.494-5.802 5.57-5.802 3.077 0 5.57 2.598 5.57 5.802 0 3.204-2.493 5.802-5.57 5.802-3.076 0-5.57-2.598-5.57-5.802z" fill="#91b1e2" stroke="#91b1e2" stroke-linejoin="round" stroke-width="2.562" vectornator:layerName="Oval 2"/><path d="M91.834 140.862c0-3.204 2.494-5.802 5.57-5.802s5.57 2.598 5.57 5.802c0 3.204-2.494 5.802-5.57 5.802s-5.57-2.598-5.57-5.802z" fill="#cadbf4" stroke="#cadbf4" stroke-linejoin="round" stroke-width="2.562" vectornator:layerName="Oval 3"/><path d="m420.737 123.72-117.559-.917a2.758 2.758 0 0 1-2.735-2.77l.161-32.979a2.765 2.765 0 0 0-2.735-2.774l-53.625-.511a2.812 2.812 0 0 1-2.774-2.775l.032-92.638" fill="none" stroke="#6998e1" stroke-linejoin="round" stroke-width="2.5" vectornator:layerName="Curve 2"/><path d="m404.807 105.047-31.408-1.179a.665.665 0 0 0-.692.65l-.15 5.773a.648.648 0 0 1-.658.63l-70.462-1.27" fill="none" stroke="#cadbf4" stroke-linejoin="round" stroke-width="2.5" vectornator:layerName="Curve 3"/><path d="m270.72 153.176.317-53.177a4.296 4.296 0 0 0-4.206-4.31l-23.24-.427a2.25 2.25 0 0 1-2.202-2.256l.074-12.55" fill="none" stroke="#6998e1" stroke-width="2.378" vectornator:layerName="Curve 4"/><path d="M264.933 158.846a5.67 5.67 0 1 1 11.341.001 5.67 5.67 0 0 1-11.341-.001z" fill="#6998e1" stroke="#6998e1" stroke-width="2.378" vectornator:layerName="Oval 1"/><path d="m205.051 48.98-47.226-.888 32.541 11.598 14.685-10.71z" fill="none" stroke="#6998e1" stroke-linejoin="round" stroke-width="2.5" vectornator:layerName="Curve 7"/><path d="m157.825 48.092-117.977.739-24.313.152" fill="none" stroke="#6998e1" stroke-linejoin="round" stroke-width="2.5" vectornator:layerName="Curve 8"/><path d="m158.418 103.626-97.31.345a1.354 1.354 0 0 1-1.362-1.365l.1-17.111s.621-1.373 1.378-1.375l37.194-.107a1.396 1.396 0 0 0 1.388-1.375l-2.402-94.282" fill="none" stroke="#6998e1" stroke-linejoin="round" stroke-width="2.5" vectornator:layerName="Curve 9"/><path d="M145.337 104.771c.415-6.206 5.986-10.887 12.443-10.454 6.457.432 11.354 5.814 10.938 12.019-.415 6.206-5.986 10.887-12.443 10.454-6.457-.432-11.354-5.813-10.938-12.019z" fill="#6998e1" stroke="#6998e1" stroke-linejoin="round" stroke-width="2.562" vectornator:layerName="Oval 3"/><path d="m18.342 263.266.976 70.743c.07 5.086 4.303 9.262 9.453 9.327l1.234.015c5.15.065 9.403 4.241 9.497 9.327l1.045 102.468" fill="none" stroke="#6998e1" stroke-linejoin="round" stroke-width="2.5" vectornator:layerName="Curve 15"/><path d="M24.096 320.848a7.213 7.213 0 0 1 7.214-7.213h72.52a7.213 7.213 0 0 1 7.213 7.213v9.402a7.213 7.213 0 0 1-7.213 7.213H31.31a7.214 7.214 0 0 1-7.214-7.213v-9.402z" fill="none" stroke="#6998e1" stroke-linejoin="round" stroke-width="2.5" vectornator:layerName="Rectangle 1"/><path d="M91.834 328.033c0-5.208 4.3-9.43 9.605-9.43 5.304 0 9.604 4.222 9.604 9.43 0 5.208-4.3 9.43-9.604 9.43-5.305 0-9.605-4.222-9.605-9.43z" fill="none" stroke="#6998e1" stroke-linejoin="round" stroke-width="2.903" vectornator:layerName="Oval 4"/><path d="M9.922 89.037a5.67 5.67 0 1 1 11.34 0 5.67 5.67 0 0 1-11.34 0z" fill="#6998e1" stroke="#6998e1" stroke-linejoin="round" stroke-width="2.903" vectornator:layerName="Oval 5"/><path d="M9.922 113.296c0-3.259 2.58-5.902 5.763-5.902 3.182 0 5.762 2.643 5.762 5.902 0 3.259-2.58 5.902-5.762 5.902-3.183 0-5.763-2.643-5.763-5.902z" fill="#6998e1" stroke="#6998e1" stroke-linejoin="round" stroke-width="1.899" vectornator:layerName="Oval 6"/><path d="M9.922 129.39a5.67 5.67 0 1 1 11.341 0 5.67 5.67 0 0 1-11.34 0z" fill="#6998e1" stroke="#6998e1" stroke-linejoin="round" stroke-width="1.866" vectornator:layerName="Oval 8"/><path d="M214.553 138.202a8.813 8.813 0 0 1 8.812-8.812h.103a8.813 8.813 0 0 1 8.813 8.812v.591a8.813 8.813 0 0 1-8.813 8.813h-.103a8.813 8.813 0 0 1-8.812-8.813v-.591z" fill="#6998e1" stroke="#6998e1" stroke-linejoin="round" stroke-width="1.866" vectornator:layerName="Rectangle 3"/><path d="m223.417-11.644-.041 166.09a3.115 3.115 0 0 0 3.13 3.153l11.896-.028a3.079 3.079 0 0 1 3.099 3.153l-4.027 207.663a3.132 3.132 0 0 1-3.221 3.074l-21.361-.578a3.209 3.209 0 0 1-3.114-3.245l2.604-184.469a3.014 3.014 0 0 1 3.2-2.991l13.543.728c1.743.094 3.131 1.584 3.101 3.329l-2.952 169.226a3.067 3.067 0 0 1-3.213 3.026l-7.026-.297a3.228 3.228 0 0 1-3.08-3.292l3.839-157.52a3.14 3.14 0 0 1 3.236-3.065l.339.01a3.277 3.277 0 0 1 3.159 3.255v22.879" fill="none" stroke="#6998e1" stroke-linejoin="round" stroke-width="2.5" vectornator:layerName="Curve 18"/><path d="M223.965 219.711a2.835 2.835 0 1 1 5.67 0 2.835 2.835 0 0 1-5.67 0z" fill="#6998e1" stroke="#6998e1" stroke-linejoin="round" stroke-width="1.866" vectornator:layerName="Oval 9"/><path d="M235.305 267.67c0-2.432 2.064-4.404 4.61-4.404 2.547 0 4.611 1.972 4.611 4.404 0 2.433-2.064 4.405-4.611 4.405-2.546 0-4.61-1.972-4.61-4.405z" fill="#6998e1" stroke="#6998e1" stroke-linejoin="round" stroke-width="1.866" vectornator:layerName="Oval 10"/><path d="M233.888 360.291c0-2.434 2.064-4.408 4.61-4.408 2.546 0 4.61 1.974 4.61 4.408 0 2.435-2.064 4.409-4.61 4.409-2.546 0-4.61-1.974-4.61-4.409z" fill="#6998e1" stroke="#6998e1" stroke-linejoin="round" stroke-width="1.866" vectornator:layerName="Oval 11"/><path d="M29.692 463.011c0-6.103 5.283-11.05 11.8-11.05 6.516 0 11.799 4.947 11.799 11.05 0 6.102-5.283 11.05-11.8 11.05-6.516 0-11.799-4.948-11.799-11.05z" fill="#6998e1" stroke="#6998e1" stroke-linejoin="round" stroke-width="2.903" vectornator:layerName="Oval 12"/><path d="m156.005 103.535.261 34.616c.004.485.89.833 1.979.777l7.423-.382c1.089-.056 1.966.292 1.959.777l-.816 57.779c-.006.486-.895.913-1.984.955l-13.334.512c-1.089.042-1.971-.317-1.97-.802l.05-21.627.068-29.668c.001-.485.884-.902 1.972-.931l8.457-.225c1.088-.029 1.966.341 1.962.827l-.459 47.074c-.005.485-.891.906-1.98.941l-4.386.139c-1.089.034-1.962-.331-1.949-.817l1.108-43.852c.012-.486.905-.912 1.994-.953l.211-.008c1.089-.04 1.984.32 1.998.804l.187 6.352" fill="none" stroke="#6998e1" stroke-linejoin="round" stroke-width="1.866" vectornator:layerName="Curve 19"/></g></g></svg>