<?xml version="1.0" encoding="utf-8"?>
<!-- Generator: Adobe Illustrator 24.3.0, SVG Export Plug-In . SVG Version: 6.00 Build 0)  -->
<svg version="1.1" id="Layer_1" xmlns="http://www.w3.org/2000/svg" xmlns:xlink="http://www.w3.org/1999/xlink" x="0px" y="0px"
	 viewBox="0 0 150 71" style="enable-background:new 0 0 150 71;" xml:space="preserve">
<style type="text/css">
	.st0{fill:#FFFFFF;stroke:#0091CA;stroke-width:0.5;stroke-linecap:round;stroke-miterlimit:10;}
	.st1{fill:#71BCFF;stroke:#0091CA;stroke-width:0.5;stroke-linecap:round;stroke-miterlimit:10;stroke-dasharray:2.24,2.24;}
	.st2{fill:#71BCFF;stroke:#0091CA;stroke-width:0.5;stroke-linecap:round;stroke-linejoin:round;stroke-dasharray:2.24,2.24;}
	.st3{fill:none;stroke:#0091CA;stroke-width:0.5;stroke-linecap:round;stroke-linejoin:round;}
	.st4{fill:#005AE6;stroke:#0091CA;stroke-width:0.5;stroke-linecap:round;stroke-linejoin:round;stroke-dasharray:3,3;}
	.st5{fill:#E8F2FC;stroke:#0091CA;stroke-width:0.5;stroke-linecap:round;stroke-miterlimit:10;stroke-dasharray:2.24,2.24;}
	.st6{fill:none;stroke:#0091CA;stroke-width:0.5;stroke-linecap:round;stroke-miterlimit:10;}
	.st7{fill:none;stroke:#0091CA;stroke-width:0.5;stroke-linecap:round;stroke-miterlimit:10;stroke-dasharray:2.24,2.24;}
</style>
<path class="st0" d="M48.1,87.2l67.1,39.5c0.7,0.4,1.5,0.6,2.2,0.6c0.8,0,1.6-0.2,2.3-0.6c0.7-0.4,1.3-1,1.7-1.6
	c0.4-0.7,0.6-1.5,0.6-2.2V47.1c0-1.3-0.3-2.6-1-3.7c-0.6-1.1-1.6-2-2.7-2.7L49.8,1.5c-0.6-0.3-1.3-0.5-2-0.5s-1.3,0.2-1.9,0.5
	c-0.6,0.3-1.1,0.8-1.4,1.4c-0.3,0.6-0.5,1.3-0.5,2l0.3,75.7c0,1.3,0.4,2.7,1,3.8C46,85.5,46.9,86.5,48.1,87.2z"/>
<path class="st1" d="M115.2,51.2c1-0.6,1.2-2.3,0.3-3.9c-0.8-1.6-2.4-2.4-3.4-1.9c-1,0.6-1.2,2.3-0.3,3.9
	C112.6,50.9,114.1,51.7,115.2,51.2z"/>
<path class="st2" d="M57.6,44.2l-4.1-2.9c-0.7-0.5-1.3-1.2-1.7-2.1c-0.4-0.9-0.6-1.9-0.6-3v-9.9c0-0.5,0.1-0.9,0.3-1.3
	s0.4-0.7,0.7-1c0.3-0.2,0.6-0.4,1-0.4c0.3,0,0.7,0.1,1,0.3l4.4,3.1c0.8,0.5,1.4,1.3,1.8,2.3c0.4,1,0.7,2.1,0.7,3.2v8.9
	c0,0.5-0.1,1-0.3,1.5S60.3,43.7,60,44s-0.7,0.4-1.1,0.4C58.4,44.5,58,44.4,57.6,44.2z"/>
<path class="st3" d="M106.1,90l-11.3-6.1c-1.9-1.1-3.5-2.6-4.7-4.5c-1.1-1.9-1.7-4.1-1.7-6.3V52c0-1,0.2-1.9,0.7-2.8
	c0.5-0.8,1.2-1.6,2-2.1s1.8-0.8,2.7-0.8c1,0,1.9,0.2,2.8,0.7l12.1,6.6c2.1,1.1,3.8,2.8,5,4.9c1.2,2.1,1.9,4.4,1.9,6.8v19
	c0,1.1-0.3,2.2-0.9,3.2s-1.3,1.8-2.3,2.4s-2,0.9-3.1,0.9S107.1,90.6,106.1,90z"/>
<path class="st3" d="M57.5,61.8c1.7-0.9,1.9-3.7,0.5-6.3s-3.8-3.9-5.5-3s-1.9,3.7-0.5,6.3C53.3,61.3,55.8,62.7,57.5,61.8z"/>
<path class="st4" d="M59.4,59l37.4,22.3"/>
<path class="st3" d="M69,52l-4.1-2.9c-0.7-0.5-1.3-1.2-1.7-2.1c-0.4-0.9-0.6-1.9-0.6-3v-9.9c0-0.5,0.1-0.9,0.3-1.3
	c0.2-0.4,0.4-0.7,0.7-1c0.3-0.2,0.6-0.4,1-0.4c0.3,0,0.7,0.1,1,0.3l4.4,3.1c0.8,0.5,1.4,1.3,1.8,2.3s0.7,2.1,0.7,3.2v8.9
	c0,0.5-0.1,1-0.3,1.5c-0.2,0.5-0.5,0.8-0.8,1.1s-0.7,0.4-1.1,0.4C69.8,52.4,69.4,52.2,69,52z"/>
<path class="st2" d="M81,59l-4.1-2.9c-0.7-0.5-1.3-1.2-1.7-2.1c-0.4-0.9-0.6-1.9-0.6-3v-9.9c0-0.5,0.1-0.9,0.3-1.3
	c0.2-0.4,0.4-0.7,0.7-1c0.3-0.2,0.6-0.4,1-0.4c0.3,0,0.7,0.1,1,0.3l4.4,3.1c0.8,0.5,1.4,1.3,1.8,2.3s0.7,2.1,0.7,3.2v8.9
	c0,0.5-0.1,1-0.3,1.5c-0.2,0.5-0.5,0.8-0.8,1.1s-0.7,0.4-1.1,0.4C81.8,59.4,81.4,59.2,81,59z"/>
<path class="st1" d="M67.1,65.8c1-0.6,1.2-2.3,0.3-3.9C66.6,60.3,65,59.5,64,60c-1,0.6-1.2,2.3-0.3,3.9
	C64.5,65.5,66.1,66.3,67.1,65.8z"/>
<path class="st5" d="M80.1,73.8c1-0.6,1.2-2.3,0.3-3.9C79.6,68.3,78,67.5,77,68c-1,0.6-1.2,2.3-0.3,3.9
	C77.5,73.5,79.1,74.3,80.1,73.8z"/>
<polyline class="st3" points="93.8,57.2 97.8,67.1 105.9,62.9 109.7,81.4 "/>
<path class="st6" d="M94.7,52.8c0.8-0.4,0.9-1.8,0.3-3c-0.7-1.2-1.8-1.8-2.6-1.4c-0.8,0.4-0.9,1.8-0.3,3
	C92.8,52.6,93.9,53.3,94.7,52.8z"/>
<path class="st6" d="M52.3,1l66.5,36.9c3.7,2.1,6,6,6,10.3V97"/>
<polyline class="st7" points="113.6,47.6 57,16.1 56.2,56 "/>
</svg>
