<?xml version="1.0" encoding="utf-8"?>
<!-- Generator: Adobe Illustrator 24.3.0, SVG Export Plug-In . SVG Version: 6.00 Build 0)  -->
<svg version="1.1" id="typescript" xmlns="http://www.w3.org/2000/svg" xmlns:xlink="http://www.w3.org/1999/xlink" x="0px" y="0px"
	 viewBox="0 0 24 24" style="enable-background:new 0 0 24 24;" xml:space="preserve">
<style type="text/css">
	.st0{fill:url(#SVGID_1_);}
	.st1{fill:url(#SVGID_2_);}
	.st2{fill:url(#SVGID_3_);}
</style>
<linearGradient id="SVGID_1_" gradientUnits="userSpaceOnUse" x1="0" y1="12" x2="24" y2="12">
	<stop  offset="8.073434e-08" style="stop-color:#B8E5FF"/>
	<stop  offset="1" style="stop-color:#BE68FF"/>
</linearGradient>
<path class="st0" d="M23.2,24H0.8C0.3,24,0,23.7,0,23.2V0.8C0,0.3,0.3,0,0.8,0h22.5C23.7,0,24,0.3,24,0.8v22.5
	C24,23.7,23.7,24,23.2,24z M1.5,22.5h21v-21h-21V22.5z"/>
<linearGradient id="SVGID_2_" gradientUnits="userSpaceOnUse" x1="8.732" y1="16.532" x2="21.75" y2="16.532">
	<stop  offset="8.073434e-08" style="stop-color:#B8E5FF"/>
	<stop  offset="1" style="stop-color:#BE68FF"/>
</linearGradient>
<path class="st1" d="M9.5,22c-0.4,0-0.8-0.3-0.8-0.8v-9.4c0-0.4,0.3-0.8,0.8-0.8s0.8,0.3,0.8,0.8v9.4C10.2,21.7,9.9,22,9.5,22z
	 M18.2,22c-1.3,0-2.5-0.6-3.1-1.6c-0.2-0.4-0.1-0.8,0.2-1c0.3-0.2,0.8-0.1,1,0.2c0.3,0.5,1,0.9,1.8,0.9c1.1,0,2-0.7,2-1.5
	c0-0.7-0.7-1.3-2.2-1.8c-2.1-0.6-3.3-1.8-3.3-3.2c0-1.7,1.6-3,3.5-3c0.7,0,1.3,0.2,1.9,0.5c0.4,0.2,0.5,0.7,0.3,1
	c-0.2,0.4-0.7,0.5-1,0.3c-0.3-0.2-0.8-0.3-1.2-0.3c-1.1,0-2,0.7-2,1.5c0,1,1.4,1.5,2.2,1.8c2.7,0.8,3.3,2.2,3.3,3.2
	C21.8,20.7,20.2,22,18.2,22z"/>
<linearGradient id="SVGID_3_" gradientUnits="userSpaceOnUse" x1="4.982" y1="11.75" x2="13.982" y2="11.75">
	<stop  offset="8.383453e-04" style="stop-color:#B8E3FF"/>
	<stop  offset="1" style="stop-color:#B9D9FE"/>
</linearGradient>
<path class="st2" d="M13.2,12.5H5.7c-0.4,0-0.8-0.3-0.8-0.8S5.3,11,5.7,11h7.5c0.4,0,0.8,0.3,0.8,0.8S13.6,12.5,13.2,12.5z"/>
</svg>
