<?xml version="1.0" encoding="utf-8"?>
<!-- Generator: Adobe Illustrator 24.3.0, SVG Export Plug-In . SVG Version: 6.00 Build 0)  -->
<svg version="1.1" id="php" xmlns="http://www.w3.org/2000/svg" xmlns:xlink="http://www.w3.org/1999/xlink" x="0px" y="0px"
	 viewBox="0 0 32 32" style="enable-background:new 0 0 32 32;" xml:space="preserve">
<style type="text/css">
	.st0{fill:url(#SVGID_1_);stroke:url(#SVGID_2_);stroke-miterlimit:10;}
	.st1{fill:url(#SVGID_3_);}
</style>
<linearGradient id="SVGID_1_" gradientUnits="userSpaceOnUse" x1="4.69" y1="16.2855" x2="27.312" y2="16.2855">
	<stop  offset="3.229374e-07" style="stop-color:#B9E1FF"/>
	<stop  offset="1" style="stop-color:#BE6DFF"/>
</linearGradient>
<linearGradient id="SVGID_2_" gradientUnits="userSpaceOnUse" x1="4.0816" y1="16.2855" x2="27.812" y2="16.2855">
	<stop  offset="8.073434e-08" style="stop-color:#B8E3FF"/>
	<stop  offset="1" style="stop-color:#BE6AFF"/>
</linearGradient>
<path class="st0" d="M10.4,13.1h-4l-1.7,8.7h2l0.4-2.3h1.9c1.8,0.1,3.9-1.4,3.9-4C12.9,14,12.1,13.2,10.4,13.1L10.4,13.1z M8.9,17.9
	H7.6l0.5-3.2h1.4c0.8,0,1.3,0.3,1.3,1C10.7,17.5,9.8,17.8,8.9,17.9z M17.6,13.1h-1.9l0.4-2.3h-2l-1.7,8.7h2l1-4.8h1.6
	c0.8,0,0.8,0.3,0.6,0.9l-0.8,4h2.1l0.8-4.4C19.9,14,19.3,13.2,17.6,13.1L17.6,13.1z M24.7,13.1h-4l-1.7,8.7h2l0.4-2.3h1.9
	c1.8,0.1,3.9-1.4,3.9-4C27.3,14,26.5,13.2,24.7,13.1L24.7,13.1z M23.2,17.9H22l0.5-3.2h1.4c0.8,0,1.3,0.3,1.3,1
	C25.1,17.5,24.2,17.8,23.2,17.9z"/>
<linearGradient id="SVGID_3_" gradientUnits="userSpaceOnUse" x1="2.033587e-02" y1="18" x2="32.0203" y2="18" gradientTransform="matrix(1 0 0 -1 0 34)">
	<stop  offset="8.073434e-08" style="stop-color:#B8E5FF"/>
	<stop  offset="1" style="stop-color:#BE68FF"/>
</linearGradient>
<path class="st1" d="M31,32H1.1C0.4,32,0,31.6,0,30.9V1.1C0,0.4,0.4,0,1.1,0h30C31.6,0,32,0.4,32,1.1v30C32,31.6,31.6,32,31,32z
	 M2,30h28V2H2V30z"/>
</svg>
