<?xml version="1.0" encoding="utf-8"?>
<!-- Generator: Adobe Illustrator 24.3.0, SVG Export Plug-In . SVG Version: 6.00 Build 0)  -->
<svg version="1.1" id="vue-dot-js" xmlns="http://www.w3.org/2000/svg" xmlns:xlink="http://www.w3.org/1999/xlink" x="0px" y="0px"
	 viewBox="0 0 24 24" style="enable-background:new 0 0 24 24;" xml:space="preserve">
<style type="text/css">
	.st0{fill:url(#SVGID_1_);}
	.st1{fill:url(#SVGID_2_);}
	.st2{fill:url(#SVGID_3_);}
</style>
<polygon points="1,23.6 1,23.6 1,23.6 "/>
<linearGradient id="SVGID_1_" gradientUnits="userSpaceOnUse" x1="2.218552e-02" y1="14" x2="23.9778" y2="14" gradientTransform="matrix(1 0 0 -1 0 26)">
	<stop  offset="8.073434e-08" style="stop-color:#B8E5FF"/>
	<stop  offset="1" style="stop-color:#BE68FF"/>
</linearGradient>
<path class="st0" d="M23.2,24H0.8C0.3,24,0,23.7,0,23.2V0.8C0,0.3,0.3,0,0.8,0h22.5C23.7,0,24,0.3,24,0.8v22.5
	C24,23.7,23.7,24,23.2,24z M1.5,22.5h21v-21h-21V22.5z"/>
<linearGradient id="SVGID_2_" gradientUnits="userSpaceOnUse" x1="2.1891" y1="12.7825" x2="21.1246" y2="12.7825">
	<stop  offset="0" style="stop-color:#B9E1FF"/>
	<stop  offset="1" style="stop-color:#BE6BFF"/>
</linearGradient>
<path class="st1" d="M2.2,4.6l9.5,16.3l9.5-16.3h-3.8l-5.7,9.8L5.9,4.6H2.2z"/>
<linearGradient id="SVGID_3_" gradientUnits="userSpaceOnUse" x1="5.9566" y1="9.5939" x2="17.4907" y2="9.5939">
	<stop  offset="0" style="stop-color:#B9E1FF"/>
	<stop  offset="1" style="stop-color:#B8E2FF"/>
</linearGradient>
<path class="st2" d="M6,4.6l5.8,10l5.7-10h-3.5l-2.2,3.8L9.5,4.6C9.5,4.6,6,4.6,6,4.6z"/>
</svg>
