<?xml version="1.0" encoding="utf-8"?>
<!-- Generator: Adobe Illustrator 24.3.0, SVG Export Plug-In . SVG Version: 6.00 Build 0)  -->
<svg version="1.1" id="Layer_1" xmlns="http://www.w3.org/2000/svg" xmlns:xlink="http://www.w3.org/1999/xlink" x="0px" y="0px"
	 viewBox="0 0 127.8 75" style="enable-background:new 0 0 127.8 75;" xml:space="preserve">
<style type="text/css">
	.st0{fill:none;}
	.st1{fill:#F2F8FF;stroke:#0091CA;stroke-miterlimit:10;}
	.st2{fill:none;stroke:#19D4FE;stroke-miterlimit:10;stroke-dasharray:2.24,2.24;}
</style>
<g>
	<rect class="st0" width="150" height="75"/>
	<g>
		<path class="st1" d="M62,85.9L25.3,67.8c-1.9-1-1.7-2.6,0.5-3.8l35.6-17.6c1.2-0.5,2.4-0.9,3.8-0.9c1.3,0,2.6,0.2,3.8,0.6
			l36.6,18.1c1.9,1,1.7,2.6-0.5,3.8L69.6,85.6c-1.2,0.5-2.4,0.9-3.8,0.9C64.5,86.6,63.2,86.4,62,85.9z"/>
		<path class="st2" d="M62,70.3L25.3,52.2c-1.9-1-1.7-2.6,0.5-3.8l35.6-17.6c1.2-0.5,2.4-0.9,3.8-0.9c1.3,0,2.6,0.2,3.8,0.6
			l36.6,18.1c1.9,1,1.7,2.6-0.5,3.8L69.6,70.1c-1.2,0.5-2.4,0.9-3.8,0.9C64.5,71,63.2,70.8,62,70.3z"/>
		<path class="st1" d="M62,53.9L25.3,35.8c-1.9-1-1.7-2.6,0.5-3.8l35.6-17.6c1.2-0.5,2.4-0.9,3.8-0.9c1.3,0,2.6,0.2,3.8,0.6
			l36.6,18.1c1.9,1,1.7,2.6-0.5,3.8L69.6,53.7c-1.2,0.5-2.4,0.9-3.8,0.9C64.5,54.6,63.2,54.4,62,53.9z"/>
		<path class="st2" d="M62,41.3L25.3,23.2c-2-1-1.7-2.6,0.5-3.8L61.4,1.9c1.2-0.6,2.4-0.9,3.8-0.9c1.3,0,2.6,0.2,3.8,0.6l36.6,18.1
			c1.9,1,1.7,2.6-0.5,3.8L69.6,41.1c-1.2,0.5-2.4,0.9-3.8,0.9C64.5,42,63.2,41.8,62,41.3z"/>
	</g>
</g>
</svg>
