<?xml version="1.0" encoding="utf-8"?>
<!-- Generator: Adobe Illustrator 24.3.0, SVG Export Plug-In . SVG Version: 6.00 Build 0)  -->
<svg version="1.1" id="react" xmlns="http://www.w3.org/2000/svg" xmlns:xlink="http://www.w3.org/1999/xlink" x="0px" y="0px"
	 viewBox="0 0 24 24" style="enable-background:new 0 0 24 24;" xml:space="preserve">
<style type="text/css">
	.st0{fill:url(#SVGID_1_);}
	.st1{fill:url(#SVGID_2_);}
</style>
<linearGradient id="SVGID_1_" gradientUnits="userSpaceOnUse" x1="3.1039" y1="12" x2="20.8961" y2="12">
	<stop  offset="8.073434e-08" style="stop-color:#B8E5FF"/>
	<stop  offset="1" style="stop-color:#BE68FF"/>
</linearGradient>
<path class="st0" d="M11.1,10.4c-0.9,0.5-1.1,1.6-0.7,2.4c0.5,0.9,1.6,1.1,2.4,0.7c0.9-0.5,1.1-1.6,0.7-2.4c0,0,0,0,0,0
	C13,10.2,12,9.9,11.1,10.4z M19.1,12.4c-0.1-0.1-0.2-0.3-0.4-0.4c0.1-0.1,0.2-0.2,0.3-0.3c1.6-1.8,2.3-3.6,1.7-4.7
	c-0.6-1-2.4-1.4-4.6-0.9c-0.2,0-0.4,0.1-0.7,0.1c0-0.1-0.1-0.3-0.1-0.4C14.5,3.5,13.2,2,12,2c-1.2,0-2.4,1.4-3.1,3.6
	C8.8,5.8,8.7,6,8.7,6.2c-0.1,0-0.3-0.1-0.4-0.1C5.9,5.6,4,5.9,3.3,7c-0.6,1,0,2.7,1.5,4.5C5,11.7,5.2,11.8,5.3,12
	c-0.2,0.2-0.4,0.4-0.5,0.6c-1.5,1.7-2.1,3.4-1.5,4.4c0.6,1.1,2.5,1.4,4.8,1c0.2,0,0.4-0.1,0.6-0.1c0.1,0.2,0.1,0.5,0.2,0.7
	C9.6,20.6,10.8,22,12,22c1.2,0,2.5-1.5,3.2-3.7c0.1-0.2,0.1-0.4,0.2-0.5c0.2,0.1,0.5,0.1,0.7,0.2c2.2,0.4,4,0.1,4.6-1
	C21.3,15.9,20.6,14.1,19.1,12.4L19.1,12.4z M4.1,7.5c0.4-0.7,1.9-0.9,4-0.5C8.2,7,8.3,7,8.5,7C8.3,7.9,8.1,8.8,8,9.7
	c-0.7,0.5-1.4,1.1-2.1,1.7c-0.1-0.2-0.3-0.3-0.4-0.5l0,0C4.2,9.5,3.7,8.1,4.1,7.5z M8,13.2c-0.5-0.4-1-0.8-1.4-1.2
	C7,11.6,7.4,11.2,8,10.8c0,0.4,0,0.8,0,1.2C7.9,12.4,7.9,12.8,8,13.2z M8,17.1c-0.9,0.2-1.8,0.2-2.6,0.1c-0.5,0-0.9-0.3-1.2-0.7
	c-0.4-0.6,0.1-2,1.4-3.4c0.2-0.2,0.3-0.4,0.5-0.5c0.7,0.6,1.4,1.2,2.1,1.7c0.1,0.9,0.2,1.8,0.4,2.7C8.3,17,8.1,17.1,8,17.1z
	 M15.1,9.1c-0.3-0.2-0.7-0.4-1-0.6c-0.3-0.2-0.7-0.4-1-0.6c0.6-0.2,1.2-0.5,1.7-0.6C14.9,7.9,15,8.5,15.1,9.1z M9.7,5.8
	c0.6-1.9,1.6-3,2.3-3c0.8,0,1.8,1.2,2.4,3.2c0,0.1,0.1,0.3,0.1,0.4c-0.9,0.3-1.7,0.6-2.5,1c-0.8-0.4-1.7-0.7-2.5-1
	C9.5,6.2,9.6,6,9.7,5.8z M9.3,7.3c0.6,0.2,1.2,0.4,1.7,0.6c-0.7,0.4-1.4,0.8-2,1.2C9,8.4,9.1,7.8,9.3,7.3z M9,14.9
	c0.3,0.2,0.7,0.4,1,0.6c0.3,0.2,0.7,0.4,1.1,0.6c-0.6,0.3-1.2,0.5-1.7,0.7C9.2,16.2,9,15.6,9,14.9z M14.4,18.1
	c-0.3,0.8-0.7,1.6-1.2,2.3l0,0c-0.3,0.4-0.7,0.7-1.2,0.7c-0.7,0-1.7-1.1-2.3-2.9c-0.1-0.2-0.1-0.4-0.2-0.6c0.9-0.3,1.7-0.6,2.5-1
	c0.8,0.4,1.7,0.7,2.5,1C14.5,17.7,14.5,17.9,14.4,18.1z M14.8,16.7c-0.6-0.2-1.2-0.4-1.8-0.6c0.3-0.2,0.7-0.4,1-0.6
	c0.4-0.2,0.7-0.4,1-0.6C15,15.5,14.9,16.1,14.8,16.7L14.8,16.7z M15.2,12c0,0.6,0,1.2-0.1,1.8c-0.5,0.3-1,0.7-1.6,1
	c-0.5,0.3-1.1,0.6-1.6,0.9c-0.6-0.3-1.1-0.5-1.6-0.9c-0.5-0.3-1-0.6-1.5-1c0-0.6-0.1-1.2-0.1-1.8l0,0c0-0.6,0-1.2,0.1-1.8
	c0.5-0.3,1-0.7,1.5-1c0.5-0.3,1.1-0.6,1.6-0.9c0.5,0.3,1.1,0.5,1.6,0.9c0.5,0.3,1,0.6,1.5,1C15.2,10.8,15.2,11.4,15.2,12L15.2,12z
	 M16.2,6.9c1.9-0.4,3.4-0.1,3.7,0.5c0.4,0.7-0.2,2.1-1.6,3.7l0,0c-0.1,0.1-0.2,0.2-0.2,0.3c-0.7-0.6-1.4-1.2-2.1-1.7
	c-0.1-0.9-0.2-1.8-0.4-2.6C15.8,7,16,6.9,16.2,6.9z M16.1,10.8c0.5,0.4,1,0.8,1.5,1.2c-0.5,0.4-1,0.8-1.5,1.2c0-0.4,0-0.8,0-1.2
	C16.1,11.6,16.1,11.2,16.1,10.8z M19.9,16.6c-0.4,0.6-1.8,0.9-3.7,0.5c-0.2,0-0.4-0.1-0.7-0.1c0.2-0.9,0.3-1.8,0.4-2.7
	c0.8-0.5,1.5-1.1,2.1-1.7c0.1,0.1,0.2,0.2,0.3,0.4v0c0.6,0.7,1.1,1.4,1.4,2.2C20.1,15.6,20.1,16.1,19.9,16.6z"/>
<linearGradient id="SVGID_2_" gradientUnits="userSpaceOnUse" x1="-1.279012e-02" y1="14.0154" x2="23.9872" y2="14.0154" gradientTransform="matrix(1 0 0 -1 0 26)">
	<stop  offset="8.073434e-08" style="stop-color:#B8E5FF"/>
	<stop  offset="1" style="stop-color:#BE68FF"/>
</linearGradient>
<path class="st1" d="M23.2,24H0.8C0.3,24,0,23.7,0,23.2V0.8C0,0.3,0.3,0,0.8,0h22.5C23.7,0,24,0.3,24,0.8v22.5
	C24,23.7,23.7,24,23.2,24z M1.5,22.5h21v-21h-21V22.5z"/>
</svg>
