<?xml version="1.0" encoding="utf-8"?>
<!-- Generator: Adobe Illustrator 24.3.0, SVG Export Plug-In . SVG Version: 6.00 Build 0)  -->
<svg version="1.1" id="html5" xmlns="http://www.w3.org/2000/svg" xmlns:xlink="http://www.w3.org/1999/xlink" x="0px" y="0px"
	 viewBox="0 0 24 24" style="enable-background:new 0 0 24 24;" xml:space="preserve">
<style type="text/css">
	.st0{fill:url(#SVGID_1_);}
</style>
<linearGradient id="SVGID_1_" gradientUnits="userSpaceOnUse" x1="2.27" y1="13.5" x2="21.73" y2="13.5" gradientTransform="matrix(1 0 0 -1 0 26)">
	<stop  offset="8.073434e-08" style="stop-color:#B8E5FF"/>
	<stop  offset="1" style="stop-color:#BE68FF"/>
</linearGradient>
<path class="st0" d="M21.5,2.3C21.3,2.1,21,2,20.7,2H3.3c-0.6,0-1,0.4-1,1v0.1l1.5,17c0,0.4,0.3,0.8,0.7,0.9l7.2,2
	c0.1,0,0.2,0,0.3,0s0.2,0,0.3,0l7.2-2c0.4-0.1,0.7-0.5,0.7-0.9l1.5-17C21.8,2.8,21.7,2.5,21.5,2.3z M18.3,19.2L12,21l-6.3-1.7L4.4,4
	h15.3L18.3,19.2z M7.8,13h6.9l-0.3,3.3l-2.6,0.9l-3.2-1.1c-0.5-0.2-1.1,0.1-1.3,0.6s0.1,1.1,0.6,1.3l0,0l3.5,1.2
	c0.2,0.1,0.5,0.1,0.7,0l3.5-1.2c0.4-0.1,0.6-0.5,0.7-0.8l0.5-5c0.1-0.5-0.3-1-0.9-1.1h-0.1H8.7L8.4,8h7.9c0.6,0,1-0.4,1-1
	s-0.4-1-1-1h-9c-0.6,0-1,0.4-1,1v0.1l0.5,5C6.9,12.6,7.3,13,7.8,13z"/>
</svg>
