<?xml version="1.0" encoding="utf-8"?>
<!-- Generator: Adobe Illustrator 24.3.0, SVG Export Plug-In . SVG Version: 6.00 Build 0)  -->
<svg version="1.1" id="Layer_1" xmlns="http://www.w3.org/2000/svg" xmlns:xlink="http://www.w3.org/1999/xlink" x="0px" y="0px"
	 viewBox="0 0 150 71" style="enable-background:new 0 0 150 71;" xml:space="preserve">
<style type="text/css">
	.st0{fill:#F2F8FF;stroke:#0091CA;stroke-width:0.5;stroke-linecap:round;stroke-miterlimit:10;}
	.st1{fill:none;stroke:#0091CA;stroke-width:0.5;stroke-linecap:round;stroke-miterlimit:10;}
	.st2{fill:#71BCFF;stroke:#0091CA;stroke-width:0.5;stroke-linecap:round;stroke-miterlimit:10;}
	.st3{fill:#71BCFF;stroke:#0091CA;stroke-width:0.5;stroke-linecap:round;stroke-miterlimit:10;stroke-dasharray:2.24,2.24;}
	.st4{fill:#E8F2FC;stroke:#0091CA;stroke-width:0.25;stroke-linecap:round;stroke-miterlimit:10;stroke-dasharray:2.24,2.24;}
</style>
<path class="st0" d="M22.4,80.3l87.8,36.4c0.9,0.4,1.9,0.6,2.9,0.6c1,0,2.1-0.2,2.9-0.5c0.9-0.4,1.6-0.9,2.2-1.5
	c0.5-0.6,0.8-1.3,0.8-2.1V43.4c0-1.2-0.4-2.4-1.3-3.4c-0.9-1-2.1-1.9-3.5-2.5l-89.6-36C23.8,1.2,22.9,1,22,1c-0.9,0-1.8,0.2-2.5,0.5
	c-0.8,0.3-1.4,0.8-1.8,1.3C17.2,3.3,17,3.9,17,4.6l0.4,69.6c0,1.2,0.5,2.4,1.3,3.5S20.9,79.6,22.4,80.3z"/>
<path class="st1" d="M105.7,95.9L80.6,41.7c-0.2-0.4-0.6-0.8-1.1-1.1c-0.5-0.3-1.2-0.5-1.8-0.5c-0.7-0.1-1.3,0-2,0.2
	c-0.6,0.2-1.1,0.5-1.4,0.9L48,72.3L35.6,54.5c-0.3-0.4-0.7-0.8-1.3-1c-0.5-0.2-1.2-0.4-1.8-0.4c-0.6,0-1.3,0.1-1.8,0.3
	c-0.6,0.2-1,0.6-1.3,1l-6.2,8"/>
<path class="st2" d="M35.5,35.2c2.4-1.3,2.7-5.2,0.8-8.8c-1.9-3.6-5.4-5.5-7.8-4.3c-2.4,1.3-2.7,5.2-0.8,8.8
	C29.6,34.6,33.1,36.5,35.5,35.2z"/>
<path class="st1" d="M32,1.6l84.9,32.9c3.7,2.1,6,6,6,10.3v48.6"/>
<line class="st3" x1="38.9" y1="32.1" x2="67.4" y2="42.6"/>
<path class="st2" d="M83.4,78.1c2.4-1.3,2.7-5.2,0.8-8.8c-1.9-3.6-5.4-5.5-7.8-4.3c-2.4,1.3-2.7,5.2-0.8,8.8
	C77.5,77.5,81,79.4,83.4,78.1z"/>
<line class="st4" x1="72" y1="48.1" x2="77.4" y2="62.9"/>
<line class="st4" x1="78.3" y1="69.2" x2="33.4" y2="30.4"/>
</svg>
