<?xml version="1.0" encoding="utf-8"?>
<!-- Generator: Adobe Illustrator 24.3.0, SVG Export Plug-In . SVG Version: 6.00 Build 0)  -->
<svg version="1.1" id="java-script" xmlns="http://www.w3.org/2000/svg" xmlns:xlink="http://www.w3.org/1999/xlink" x="0px"
	 y="0px" viewBox="0 0 24 24" style="enable-background:new 0 0 24 24;" xml:space="preserve">
<style type="text/css">
	.st0{fill:url(#SVGID_1_);}
</style>
<linearGradient id="SVGID_1_" gradientUnits="userSpaceOnUse" x1="2.9255" y1="12" x2="21.0746" y2="12">
	<stop  offset="8.073434e-08" style="stop-color:#B8E5FF"/>
	<stop  offset="1" style="stop-color:#BE68FF"/>
</linearGradient>
<path class="st0" d="M14.5,14.9c-0.8,0.1-1.5-0.1-2.2-0.4c-0.3-0.2-0.5-0.6-0.5-1c0-0.1-0.1-0.2-0.2-0.2c0,0,0,0,0,0
	c-0.3,0-0.6,0-0.9,0c-0.1,0-0.2,0.1-0.2,0.2c0,0.7,0.2,1.4,0.8,1.8c0.6,0.5,1.4,0.8,2.2,0.8c0.8,0.1,1.7,0.1,2.5-0.1
	c0.6-0.1,1.2-0.4,1.7-0.9c0.5-0.6,0.7-1.5,0.4-2.2c-0.2-0.5-0.7-0.9-1.2-1.1c-1.3-0.4-2.7-0.4-4-0.8c-0.2-0.1-0.5-0.1-0.6-0.4
	c-0.1-0.3,0-0.7,0.3-1c0.4-0.2,0.9-0.4,1.3-0.3c0.6-0.1,1.3,0,1.9,0.3c0.4,0.2,0.6,0.6,0.7,1c0,0.1,0.1,0.2,0.2,0.2
	c0.3,0,0.6,0,0.9,0c0.1,0,0.2-0.1,0.2-0.2c0-0.9-0.4-1.7-1.2-2.1c-1-0.5-2.1-0.6-3.2-0.5v0c-0.8,0-1.6,0.3-2.2,0.9
	c-0.6,0.6-0.7,1.5-0.4,2.3c0.2,0.5,0.7,0.9,1.2,1.1c1.3,0.5,2.7,0.3,4,0.7c0.3,0.1,0.5,0.2,0.6,0.5c0.1,0.3,0,0.7-0.3,0.9
	C15.7,14.8,15.1,14.9,14.5,14.9z M20.3,6.4c-2.5-1.4-5-2.8-7.5-4.2c-0.5-0.3-1.1-0.3-1.6,0C8.7,3.6,6.2,5,3.7,6.4
	C3.2,6.7,2.9,7.2,2.9,7.8v8.5c0,0.6,0.3,1.1,0.8,1.4c0.7,0.4,1.4,0.8,2.1,1.2c0.9,0.5,1.9,0.5,2.7,0.1c0.7-0.4,1-1.1,1-1.9
	c0-2.8,0-5.6,0-8.4c0-0.1-0.1-0.2-0.2-0.3c0,0,0,0,0,0c-0.3,0-0.6,0-1,0c-0.1,0-0.2,0.1-0.2,0.2c0,0,0,0,0,0c0,2.8,0,5.6,0,8.3
	c0,0.4-0.2,0.7-0.6,0.9c-0.4,0.1-0.9,0.1-1.2-0.2c-0.7-0.4-1.3-0.7-2-1.1c-0.1,0-0.1-0.1-0.1-0.2c0-2.8,0-5.6,0-8.4
	c0-0.1,0.1-0.2,0.2-0.3c2.5-1.4,5-2.8,7.4-4.2c0.1-0.1,0.2-0.1,0.3,0c2.5,1.4,5,2.8,7.4,4.2c0.1,0,0.2,0.1,0.2,0.3
	c0,2.8,0,5.6,0,8.4c0,0.1,0,0.2-0.1,0.2c-2.4,1.4-4.9,2.8-7.3,4.1c-0.1,0.1-0.3,0.2-0.4,0.1c-0.6-0.4-1.3-0.7-1.9-1.1
	c-0.1-0.1-0.2-0.1-0.2,0c-0.3,0.2-0.6,0.3-0.9,0.4C8.7,20,8.6,20,8.5,20.1c0.1,0.1,0.3,0.2,0.4,0.3c0.7,0.4,1.5,0.9,2.2,1.3
	c0.5,0.3,1.1,0.3,1.7,0c2.5-1.4,5-2.8,7.5-4.2c0.5-0.3,0.8-0.8,0.8-1.4V7.8C21.1,7.2,20.8,6.7,20.3,6.4L20.3,6.4z"/>
</svg>
