<?xml version="1.0" encoding="UTF-8" standalone="no"?>
<!DOCTYPE svg PUBLIC "-//W3C//DTD SVG 1.1//EN" "http://www.w3.org/Graphics/SVG/1.1/DTD/svg11.dtd">
<!-- Created with Vectornator (http://vectornator.io/) -->
<svg height="100%" stroke-miterlimit="10" style="fill-rule:nonzero;clip-rule:evenodd;stroke-linecap:round;stroke-linejoin:round;" version="1.1" viewBox="0 0 1024 600" width="100%" xml:space="preserve" xmlns="http://www.w3.org/2000/svg" xmlns:vectornator="http://vectornator.io" xmlns:xlink="http://www.w3.org/1999/xlink">
<defs>
<filter color-interpolation-filters="sRGB" filterUnits="userSpaceOnUse" height="387.662" id="Filter" width="848.38" x="87.8101" y="102.078">
<feGaussianBlur in="SourceGraphic" result="Blur" stdDeviation="0.664121"/>
</filter>
</defs>
<clipPath id="ArtboardFrame">
<rect height="600" width="1024" x="0" y="0"/>
</clipPath>
<g clip-path="url(#ArtboardFrame)" id="Layer-1" vectornator:layerName="Layer 1">
<path d="M401.712 282.009C400.69 287.813 400.349 293.688 400.554 299.563C400.69 303.145 398.987 306.584 395.989 308.375L383.521 315.898L390.402 337.392L404.71 335.457C408.116 335.027 411.455 336.604 413.362 339.541C416.564 344.413 420.243 348.855 424.331 352.796C426.852 355.232 427.874 358.957 426.988 362.396L423.241 376.941L442.522 387.043L451.379 375.078C453.491 372.212 456.898 370.851 460.236 371.495C465.754 372.57 471.341 373 476.928 372.713C480.334 372.57 483.605 374.361 485.308 377.514L492.462 390.625L512.901 383.389L511.061 368.343C510.652 364.761 512.151 361.25 514.944 359.244C519.577 355.948 523.801 352.008 527.549 347.709C529.865 345.058 533.408 343.983 536.678 344.915L550.577 348.855L560.183 328.508L548.737 319.194C546.012 316.973 544.717 313.39 545.331 309.88C546.352 304.076 546.761 298.201 546.489 292.326C546.352 288.744 548.124 285.305 551.053 283.514L563.521 275.991L556.64 254.497L542.333 256.432C538.926 256.861 535.588 255.285 533.68 252.348C530.546 247.476 526.799 243.034 522.711 239.093C520.19 236.657 519.169 232.932 520.054 229.493L523.801 214.877L504.589 204.775L495.732 216.74C493.62 219.605 490.213 220.967 486.875 220.322C481.356 219.247 475.77 218.817 470.183 219.104C466.776 219.247 463.506 217.456 461.803 214.304L454.649 201.192L434.21 208.429L436.05 223.474C436.458 227.057 434.96 230.567 432.166 232.573C427.533 235.869 423.309 239.81 419.562 244.108C417.246 246.759 413.703 247.834 410.433 246.903L396.534 242.962L386.928 263.31L398.306 272.624C401.099 274.845 402.393 278.427 401.712 282.009ZM497.98 244.252C525.096 258.438 536.133 293.043 522.711 321.558C509.222 350.073 476.315 361.68 449.199 347.566C422.083 333.38 411.046 298.775 424.468 270.259C437.957 241.744 470.864 230.137 497.98 244.252Z" fill="#6a9be7" fill-rule="nonzero" opacity="1" stroke="none" vectornator:layerName="path"/>
<path d="M934.53 252.263L934.53 229.742C934.53 220.799 925.422 213.55 914.188 213.55L857.94 213.55C846.705 213.55 837.598 206.3 837.598 197.357L837.598 174.836C837.598 165.893 862.258 158.644 873.493 158.644L875.76 158.644C886.994 158.644 896.102 151.394 896.102 142.451L896.102 119.93C896.102 110.987 886.994 103.738 875.76 103.738L188.477 103.738C177.242 103.738 168.135 110.987 168.135 119.93L168.135 142.451C168.135 151.394 177.242 158.644 188.477 158.644L188.477 158.644C199.711 158.644 208.819 165.893 208.819 174.836L208.819 197.357C208.819 206.3 199.711 213.55 188.477 213.55L109.812 213.55C98.5778 213.55 89.4704 220.799 89.4704 229.742L89.4704 252.263C89.4704 261.206 98.5778 268.456 109.812 268.456L140.679 268.456C151.914 268.456 161.021 275.705 161.021 284.648L161.021 307.169C161.021 316.112 151.914 323.362 140.679 323.362L140.604 323.362C129.37 323.362 120.262 330.611 120.262 339.554L120.262 362.075C120.262 371.018 129.37 378.268 140.604 378.268L145.07 378.268C156.305 378.268 165.412 385.517 165.412 394.46L165.412 416.981C165.412 425.924 156.305 433.174 145.07 433.174L118.437 433.174C107.203 433.174 98.0951 440.423 98.0951 449.366L98.0951 471.887C98.0951 480.83 107.203 488.079 118.437 488.079L871.128 488.079C882.362 488.079 891.47 480.83 891.47 471.887L891.47 449.366C891.47 440.423 882.362 433.174 871.128 433.174L853.49 433.174C842.256 433.174 833.148 425.924 833.148 416.981L833.148 394.46C833.148 385.517 842.256 378.268 853.49 378.268L895.078 378.268C906.313 378.268 915.42 371.018 915.42 362.075L915.42 339.554C915.42 330.611 906.313 323.362 895.078 323.362L882.462 323.362C871.228 323.362 862.12 316.112 862.12 307.169L862.12 284.648C862.12 275.705 871.228 268.456 882.462 268.456L914.188 268.456C925.422 268.456 934.53 261.206 934.53 252.263Z" fill="#6a9be7" fill-rule="nonzero" filter="url(#Filter)" opacity="0.188487" stroke="#6a9be7" stroke-linecap="butt" stroke-linejoin="round" stroke-opacity="0" stroke-width="4.24818" vectornator:blur="1.32824" vectornator:layerName="path"/>
<path d="M509.326 313.687C499.488 333.441 475.49 341.566 455.739 331.726C435.989 321.887 427.865 297.884 437.703 278.13C447.541 258.377 471.54 250.252 491.29 260.091C511.115 269.856 519.164 293.859 509.326 313.687Z" fill="#6a9be7" fill-rule="nonzero" opacity="1" stroke="none" vectornator:layerName="path 1"/>
<path d="M1259.34-7.86739C1246.14 18.6326 1213.94 29.5326 1187.44 16.3326C1160.94 3.13261 1150.04-29.0674 1163.24-55.5674C1176.44-82.0674 1208.64-92.9674 1235.14-79.7674C1261.74-66.6674 1272.54-34.4674 1259.34-7.86739Z" fill="#cce9ff" fill-rule="nonzero" opacity="1" stroke="none" vectornator:layerName="path 3"/>
<path d="M329.347 345.768L329.347 374.045C329.347 398.603 330.9 400.464 358.454 403.067L358.454 413.487L267.641 413.487L267.641 403.067C296.748 400.464 298.688 398.231 298.688 373.672L298.688 345.768L196.233 345.768L196.233 334.605C233.102 284.374 273.075 230.05 311.884 178.331L329.347 178.331L329.347 327.907L367.381 327.907L367.381 345.768L329.347 345.768ZM298.688 217.4C274.239 251.631 247.072 289.582 220.295 327.906L298.688 327.906L298.688 217.4ZM712.776 345.768L712.776 374.045C712.776 398.603 714.329 400.464 741.883 403.067L741.883 413.487L651.07 413.487L651.07 403.067C680.176 400.464 682.117 398.231 682.117 373.672L682.117 345.768L579.662 345.768L579.662 334.605C616.53 284.374 656.503 230.05 695.313 178.331L712.776 178.331L712.776 327.907L750.81 327.907L750.81 345.768L712.776 345.768ZM682.117 217.4C657.668 251.631 630.501 289.582 603.724 327.906L682.117 327.906L682.117 217.4Z" fill="#6a9be7" fill-rule="nonzero" opacity="1" stroke="none" vectornator:layerName="path 4"/>
</g>
<g id="Layer-2" vectornator:layerName="Layer 2"/>
</svg>
