<?xml version="1.0" encoding="UTF-8" standalone="no"?>
<!DOCTYPE svg PUBLIC "-//W3C//DTD SVG 1.1//EN" "http://www.w3.org/Graphics/SVG/1.1/DTD/svg11.dtd">
<!-- Created with Vectornator (http://vectornator.io/) -->
<svg height="100%" stroke-miterlimit="10" style="fill-rule:nonzero;clip-rule:evenodd;stroke-linecap:round;stroke-linejoin:round;" version="1.1" viewBox="0 0 1920 1080" width="100%" xml:space="preserve" xmlns="http://www.w3.org/2000/svg" xmlns:vectornator="http://vectornator.io" xmlns:xlink="http://www.w3.org/1999/xlink">
<defs/>
<g id="Untitled" vectornator:layerName="Untitled">
<g opacity="0.1" vectornator:layerName="g">
<path d="M466.3 715.7C465.6 712 464.5 708.4 463 705C462.1 702.9 462.4 700.5 463.9 698.7L470 691.2L460.8 680L452.3 684.5C450.3 685.6 447.8 685.4 445.9 684.1C442.8 682 439.5 680.2 436 678.8C433.9 678 432.4 676 432.2 673.7L431.3 664.1L416.9 662.7L414.1 672C413.4 674.2 411.6 675.8 409.3 676.2C405.6 676.9 402 678 398.6 679.5C396.5 680.4 394.1 680.1 392.3 678.6L384.8 672.5L373.6 681.7L378.1 690.2C379.2 692.2 379 694.7 377.7 696.6C375.6 699.7 373.8 703 372.4 706.5C371.6 708.6 369.6 710.1 367.3 710.3L357.7 711.2L356.3 725.6L365.6 728.4C367.8 729.1 369.4 730.9 369.8 733.2C370.5 736.9 371.6 740.5 373.1 743.9C374 746 373.7 748.5 372.2 750.2L366.1 757.7L375.3 768.9L383.8 764.4C385.8 763.3 388.3 763.5 390.2 764.8C393.3 766.9 396.6 768.7 400.1 770.1C402.2 770.9 403.7 772.9 403.9 775.2L404.8 784.8L419.2 786.2L422 776.9C422.7 774.7 424.5 773.1 426.8 772.7C430.5 772 434.1 770.9 437.5 769.4C439.6 768.5 442 768.8 443.8 770.3L451.3 776.4L462.5 767.2L458 758.7C456.9 756.7 457.1 754.2 458.4 752.3C460.5 749.2 462.3 745.9 463.7 742.4C464.5 740.3 466.5 738.8 468.8 738.6L478.4 737.7L479.8 723.3L470.5 720.5C468.4 719.8 466.7 717.9 466.3 715.7ZM414.5 761.1C394.3 759.1 379.5 741.1 381.5 720.9C383.5 700.7 401.5 685.9 421.7 687.9C441.9 689.9 456.7 707.9 454.7 728.1C452.7 748.3 434.7 763 414.5 761.1Z" fill="#2a94f4" fill-rule="nonzero" opacity="1" stroke="none" vectornator:layerName="path"/>
<path d="M393.7 722C395 708.5 407 698.7 420.5 700C434 701.3 443.8 713.3 442.5 726.8C441.2 740.3 429.2 750.1 415.7 748.8C402.2 747.5 392.4 735.5 393.7 722Z" fill="#2a94f4" fill-rule="nonzero" opacity="1" stroke="none" vectornator:layerName="path"/>
</g>
<path d="M776.8 888.5C776.8 897 783.7 903.9 792.2 903.9L1345.5 903.9C1354 903.9 1360.9 897 1360.9 888.5L1360.9 412.1L776.9 412.1L776.9 888.5L776.8 888.5Z" fill="#96b7e9" fill-rule="nonzero" opacity="0.19" stroke="none" vectornator:layerName="path"/>
<path d="M950.6 691.8C953.2 700.8 956.8 709.5 961.4 717.8C964.2 722.8 964 729 960.8 733.8L947.4 753.9L973.1 779.6L993.2 766.2C998 763 1004.2 762.8 1009.2 765.6C1017.4 770.2 1026.1 773.8 1035.2 776.4C1040.7 778 1044.9 782.5 1046.1 788.2L1050.8 811.9L1087.1 811.9L1091.9 788.1C1093 782.5 1097.2 777.9 1102.8 776.3C1111.8 773.7 1120.5 770.1 1128.8 765.5C1133.8 762.7 1140 762.9 1144.8 766.1L1164.9 779.5L1190.6 753.8L1177.2 733.7C1174 728.9 1173.8 722.7 1176.6 717.7C1181.2 709.5 1184.8 700.8 1187.4 691.7C1189 686.2 1193.5 682 1199.2 680.8L1222.9 676.1L1222.9 639.8L1199.1 635C1193.5 633.9 1188.9 629.7 1187.3 624.1C1184.7 615.1 1181.1 606.4 1176.5 598.1C1173.7 593.1 1173.9 586.9 1177.1 582.1L1190.5 562L1164.8 536.3L1144.7 549.7C1139.9 552.9 1133.7 553.1 1128.7 550.3C1120.5 545.7 1111.8 542.1 1102.7 539.5C1097.2 537.9 1093 533.4 1091.8 527.7L1087.1 504L1050.8 504L1046 527.8C1044.9 533.4 1040.7 538 1035.1 539.6C1026.1 542.2 1017.4 545.8 1009.1 550.4C1004.1 553.2 997.9 553 993.1 549.8L973 536.4L947.3 562.1L960.7 582.2C963.9 587 964.1 593.2 961.3 598.2C956.7 606.4 953.1 615.1 950.5 624.2C948.9 629.7 944.4 633.9 938.7 635.1L915 639.8L915 676.1L938.8 680.9C944.5 682 949.1 686.2 950.6 691.8ZM1068.8 565.7C1119.7 565.7 1161 607 1161 657.9C1161 708.8 1119.7 750.1 1068.8 750.1C1017.9 750.1 976.6 708.8 976.6 657.9C976.6 607.1 1017.9 565.8 1068.8 565.7ZM776.8 335.2L776.8 381.3L1360.8 381.3L1360.8 335.2C1360.8 326.7 1353.9 319.8 1345.4 319.8L792.1 319.8C783.6 319.8 776.8 326.7 776.8 335.2ZM930.5 335.2L961.2 335.2L961.2 366L930.5 366L930.5 335.2ZM869 335.2L899.7 335.2L899.7 366L869 366L869 335.2ZM807.5 335.2L838.2 335.2L838.2 366L807.5 366L807.5 335.2Z" fill="#6a9be7" fill-rule="nonzero" opacity="1" stroke="none" vectornator:layerName="path"/>
<path d="M1130.3 658C1130.3 691.9 1102.8 719.5 1068.8 719.5C1034.8 719.5 1007.3 692 1007.3 658C1007.3 624.1 1034.8 596.5 1068.8 596.5C1102.7 596.5 1130.3 624 1130.3 658ZM1084.2 58.6C1084.2 50.1 1077.3 43.2 1068.8 43.2L515.5 43.2C507 43.2 500.1 50.1 500.1 58.6L500.1 104.7L1084.1 104.7L1084.1 58.6L1084.2 58.6ZM561.6 89.3L530.9 89.3L530.9 58.6L561.6 58.6L561.6 89.3ZM623.1 89.3L592.4 89.3L592.4 58.6L623.1 58.6L623.1 89.3ZM684.6 89.3L653.9 89.3L653.9 58.6L684.6 58.6L684.6 89.3Z" fill="#6a9be7" fill-rule="nonzero" opacity="1" stroke="none" vectornator:layerName="path"/>
<path d="M746 335.2C746 309.7 766.6 289.1 792.1 289.1L1084.1 289.1L1084.1 135.4L500.1 135.4L500.1 611.8C500.1 620.3 507 627.2 515.5 627.2L746 627.2C746 627.2 746 335.2 746 335.2ZM869 212.3L899.7 212.3L899.7 243L869 243C869 243 869 212.3 869 212.3ZM807.5 212.3L838.2 212.3L838.2 243L807.5 243C807.5 243 807.5 212.3 807.5 212.3ZM746 212.3L776.7 212.3L776.7 243L746 243C746 243 746 212.3 746 212.3ZM684.6 581.1L561.6 581.1L561.6 550.4L684.6 550.4L684.6 581.1ZM684.6 519.6L561.6 519.6L561.6 488.9L684.6 488.9L684.6 519.6ZM684.6 458.2L561.6 458.2L561.6 427.5L684.6 427.5L684.6 458.2ZM684.6 396.7L561.6 396.7L561.6 366L684.6 366C684.6 366 684.6 396.7 684.6 396.7ZM684.6 335.2L561.6 335.2L561.6 304.5L684.6 304.5L684.6 335.2ZM684.6 243L684.6 212.3L715.3 212.3L715.3 243C715.3 243 684.6 243 684.6 243Z" fill="#6a9be7" fill-rule="nonzero" opacity="0.198818" stroke="none" vectornator:layerName="path"/>
<path d="M557.4 819.5C555.6 814.9 553.4 810.4 550.6 806.3C548.9 803.8 548.8 800.5 550.2 797.9L556.4 786.7L541.8 774.3L531.8 782.3C529.4 784.2 526.2 784.6 523.4 783.3C518.9 781.3 514.1 779.7 509.3 778.8C506.3 778.2 503.9 776 503.1 773.1L499.6 760.9L480.5 762.5L479 775.2C478.7 778.2 476.6 780.8 473.8 781.9C469.2 783.7 464.7 785.9 460.6 788.7C458.1 790.4 454.8 790.5 452.2 789.1L441 782.9L428.6 797.5L436.6 807.5C438.5 809.9 438.9 813.1 437.6 815.9C435.6 820.4 434 825.2 433.1 830C432.5 833 430.3 835.4 427.4 836.2L415.1 839.7L416.7 858.8L429.4 860.3C432.4 860.6 435 862.7 436.1 865.5C437.9 870.1 440.1 874.6 442.9 878.7C444.6 881.2 444.7 884.5 443.3 887.1L437.1 898.3L451.7 910.7L461.7 902.7C464.1 900.8 467.3 900.4 470.1 901.7C474.6 903.7 479.4 905.3 484.2 906.2C487.2 906.8 489.6 909 490.4 911.9L493.9 924.2L513 922.6L514.5 909.9C514.8 906.9 516.9 904.3 519.7 903.2C524.3 901.4 528.8 899.2 532.9 896.4C535.4 894.7 538.7 894.6 541.3 896L552.5 902.2L564.9 887.6L556.9 877.6C555 875.2 554.6 872 555.9 869.2C557.9 864.7 559.5 859.9 560.4 855.1C561 852.1 563.2 849.7 566.1 848.9L578.4 845.4L576.8 826.3L564.1 824.8C561.1 824.4 558.5 822.3 557.4 819.5ZM500.8 891C474 893.2 450.5 873.3 448.2 846.5C446 819.7 465.9 796.2 492.7 793.9C519.5 791.7 543 811.6 545.3 838.4C547.5 865.2 527.6 888.7 500.8 891Z" fill="#6a9be7" fill-rule="nonzero" opacity="1" stroke="none" vectornator:layerName="path"/>
<path d="M464.4 845.2C462.9 827.3 476.2 811.6 494 810.1C511.9 808.6 527.6 821.9 529.1 839.7C530.6 857.6 517.3 873.3 499.5 874.8C481.6 876.3 465.9 863.1 464.4 845.2Z" fill="#6a9be7" fill-rule="nonzero" opacity="1" stroke="none" vectornator:layerName="path"/>
<path d="M713.1 687.9C708.3 683.6 703.1 679.8 697.4 676.7C693.9 674.8 691.9 671.1 692 667.2L692.5 650.6L668.3 645L661.5 660.1C659.9 663.7 656.4 666.1 652.4 666.3C646 666.6 639.6 667.7 633.4 669.5C629.6 670.6 625.5 669.5 622.8 666.6L611.5 654.5L590.4 667.6L596.2 683.2C597.6 686.9 596.8 691.1 594.1 694C589.8 698.8 586 704 582.9 709.7C581 713.2 577.3 715.2 573.4 715.1L556.8 714.6L551.2 738.8L566.3 745.6C569.9 747.2 572.3 750.7 572.5 754.7C572.8 761.1 573.9 767.5 575.6 773.7C576.7 777.5 575.6 781.6 572.7 784.3L560.6 795.6L573.7 816.7L589.3 810.8C593 809.4 597.1 810.2 600.1 812.9C604.9 817.2 610.1 821 615.8 824.1C619.3 826 621.4 829.7 621.2 833.6L620.7 850.2L644.9 855.8L651.7 840.7C653.3 837.1 656.8 834.7 660.8 834.5C667.2 834.2 673.6 833.1 679.8 831.4C683.6 830.3 687.7 831.4 690.4 834.3L701.7 846.4L722.8 833.3L717 817.7C715.6 814 716.4 809.8 719.1 806.9C723.4 802.1 727.2 796.9 730.3 791.2C732.2 787.7 735.9 785.7 739.8 785.8L756.4 786.3L762 762.1L746.9 755.3C743.3 753.7 740.9 750.2 740.7 746.2C740.4 739.8 739.3 733.4 737.6 727.2C736.5 723.4 737.6 719.3 740.5 716.6L752.6 705.3L739.5 684.2L723.9 690C720.2 691.3 716.1 690.5 713.1 687.9ZM690.1 804C660.5 822.5 621.5 813.4 603 783.8C584.5 754.2 593.6 715.2 623.2 696.7C652.8 678.2 691.8 687.3 710.3 716.9C728.7 746.6 719.7 785.5 690.1 804Z" fill="#cce9ff" fill-rule="nonzero" opacity="1" stroke="none" vectornator:layerName="path"/>
<path d="M620.9 772.6C608.6 752.9 614.6 726.9 634.4 714.6C654.2 702.3 680.1 708.3 692.4 728.1C704.7 747.8 698.7 773.8 678.9 786.1C659.2 798.4 633.2 792.4 620.9 772.6Z" fill="#cce9ff" fill-rule="nonzero" opacity="1" stroke="none" vectornator:layerName="path"/>
<path d="M1412.8 222.4C1408.9 227.4 1405.7 232.8 1403.1 238.6C1401.5 242.1 1398.1 244.5 1394.2 244.7L1377.9 245.5L1374.3 269.6L1389.6 275.1C1393.2 276.4 1395.8 279.7 1396.3 283.5C1397.1 289.8 1398.6 295.9 1400.9 301.8C1402.3 305.4 1401.5 309.5 1398.9 312.4L1388 324.4L1402.5 344L1417.3 337.1C1420.8 335.5 1424.9 335.9 1428 338.3C1433 342.2 1438.4 345.4 1444.2 348C1447.7 349.6 1450.1 353 1450.3 356.9L1451.1 373.2L1475.2 376.8L1480.7 361.5C1482 357.9 1485.3 355.3 1489.1 354.8C1495.4 354 1501.5 352.5 1507.4 350.2C1511 348.8 1515.1 349.6 1518 352.2L1530 363.2L1549.6 348.7L1542.7 333.9C1541.1 330.4 1541.5 326.3 1543.9 323.2C1547.8 318.2 1551 312.8 1553.6 307C1555.2 303.5 1558.6 301.1 1562.5 300.9L1578.8 300.1L1582.4 276L1567.1 270.5C1563.5 269.2 1560.9 265.9 1560.4 262.1C1559.6 255.8 1558.1 249.7 1555.8 243.8C1554.4 240.2 1555.2 236.1 1557.8 233.2L1568.8 221.2L1554.3 201.6L1539.5 208.5C1536 210.1 1531.9 209.7 1528.8 207.3C1523.8 203.4 1518.4 200.2 1512.6 197.6C1509.1 196 1506.7 192.6 1506.5 188.7L1505.7 172.4L1481.6 168.8L1476.1 184.1C1474.8 187.7 1471.5 190.3 1467.7 190.8C1461.4 191.6 1455.3 193.1 1449.4 195.4C1445.8 196.8 1441.7 196 1438.8 193.4L1426.8 182.4L1407.2 196.9L1414.1 211.7C1415.6 215.2 1415.2 219.3 1412.8 222.4ZM1528.1 235.9C1548.4 263.4 1542.6 302.3 1515.1 322.6C1487.6 342.9 1448.7 337.1 1428.4 309.6C1408.1 282.1 1413.9 243.2 1441.4 222.9C1469 202.6 1507.8 208.4 1528.1 235.9Z" fill="#6a9be7" fill-rule="nonzero" opacity="1" stroke="none" vectornator:layerName="path"/>
<path d="M1502.8 306C1484.4 319.6 1458.6 315.7 1445 297.3C1431.4 278.9 1435.3 253.1 1453.7 239.5C1472.1 225.9 1497.9 229.8 1511.5 248.2C1525.1 266.5 1521.2 292.4 1502.8 306Z" fill="#6a9be7" fill-rule="nonzero" opacity="1" stroke="none" vectornator:layerName="path"/>
<path d="M1166 141.6C1164.5 149.7 1164 157.9 1164.3 166.1C1164.5 171.1 1162 175.9 1157.6 178.4L1139.3 188.9L1149.4 218.9L1170.4 216.2C1175.4 215.6 1180.3 217.8 1183.1 221.9C1187.8 228.7 1193.2 234.9 1199.2 240.4C1202.9 243.8 1204.4 249 1203.1 253.8L1197.6 274.1L1225.9 288.2L1238.9 271.5C1242 267.5 1247 265.6 1251.9 266.5C1260 268 1268.2 268.6 1276.4 268.2C1281.4 268 1286.2 270.5 1288.7 274.9L1299.2 293.2L1329.2 283.1L1326.5 262.1C1325.9 257.1 1328.1 252.2 1332.2 249.4C1339 244.8 1345.2 239.3 1350.7 233.3C1354.1 229.6 1359.3 228.1 1364.1 229.4L1384.5 234.9L1398.6 206.5L1381.8 193.5C1377.8 190.4 1375.9 185.4 1376.8 180.5C1378.3 172.4 1378.9 164.2 1378.5 156C1378.3 151 1380.9 146.2 1385.2 143.7L1403.5 133.2L1393.4 103.2L1372.4 105.9C1367.4 106.5 1362.5 104.3 1359.7 100.2C1355.1 93.4 1349.6 87.2 1343.6 81.7C1339.9 78.3 1338.4 73.1 1339.7 68.3L1345.2 47.9L1317 33.8L1304 50.5C1300.9 54.5 1295.9 56.4 1291 55.5C1282.9 54 1274.7 53.4 1266.5 53.8C1261.5 54 1256.7 51.5 1254.2 47.1L1243.7 28.8L1213.7 38.9L1216.4 59.9C1217 64.9 1214.8 69.8 1210.7 72.6C1203.9 77.2 1197.7 82.7 1192.2 88.7C1188.8 92.4 1183.6 93.9 1178.8 92.6L1158.4 87.1L1144.3 115.5L1161 128.5C1165.1 131.6 1167 136.6 1166 141.6ZM1307.3 88.9C1347.1 108.7 1363.3 157 1343.6 196.8C1323.8 236.6 1275.5 252.8 1235.7 233.1C1195.9 213.3 1179.7 165 1199.4 125.2C1219.2 85.4 1267.5 69.2 1307.3 88.9Z" fill="#cce9ff" fill-rule="nonzero" opacity="1" stroke="none" vectornator:layerName="path"/>
<path d="M1319.5 184.9C1306.3 211.4 1274.1 222.3 1247.6 209.1C1221.1 195.9 1210.2 163.7 1223.4 137.2C1236.6 110.7 1268.8 99.8 1295.3 113C1321.9 126.1 1332.7 158.3 1319.5 184.9Z" fill="#cce9ff" fill-rule="nonzero" opacity="1" stroke="none" vectornator:layerName="path"/>
</g>
</svg>
